<?xml version="1.0" encoding="utf-8"?>
<!-- Generator: Adobe Illustrator 27.5.0, SVG Export Plug-In . SVG Version: 6.00 Build 0)  -->
<svg version="1.1" xmlns="http://www.w3.org/2000/svg" xmlns:xlink="http://www.w3.org/1999/xlink" x="0px" y="0px"
	 viewBox="0 0 500 500" style="enable-background:new 0 0 500 500;" xml:space="preserve">
<g id="Background_Complete">
	<g>
		<g>
			<path style="fill:#E0E0E0;" d="M125.212,96.848c-0.019,0.053-0.932-0.322-2.655-0.705c-1.715-0.377-4.29-0.71-7.412-0.285
				c-3.1,0.415-6.773,1.661-9.988,4.308c-3.208,2.598-5.953,6.53-7.05,11.194c-0.011,0.042-0.022,0.085-0.032,0.124l-0.205,0.8
				l-0.307-0.759c-1.795-4.432-4.983-7.953-8.441-10.192c-3.467-2.28-7.197-3.224-10.308-3.437
				c-3.132-0.218-5.672,0.231-7.365,0.674c-1.7,0.448-2.598,0.843-2.618,0.793c-0.007-0.017,0.213-0.123,0.641-0.309
				c0.426-0.189,1.071-0.435,1.922-0.685c1.692-0.509,4.257-1.025,7.445-0.852c3.165,0.167,6.99,1.091,10.553,3.4
				c3.552,2.267,6.83,5.86,8.672,10.407l-0.513,0.041c0.01-0.04,0.021-0.084,0.033-0.128c1.128-4.796,3.958-8.817,7.262-11.457
				c3.313-2.692,7.091-3.927,10.251-4.299c3.186-0.383,5.792,0.016,7.509,0.459c0.864,0.217,1.521,0.442,1.954,0.619
				C124.994,96.731,125.218,96.83,125.212,96.848z"/>
		</g>
	</g>
	<g>
		<g>
			<path style="fill:#E0E0E0;" d="M202.948,55.265c-0.016,0.045-0.524-0.146-1.471-0.342c-0.943-0.192-2.352-0.361-4.055-0.118
				c-1.691,0.237-3.688,0.925-5.434,2.371c-1.743,1.419-3.234,3.562-3.83,6.097l-0.017,0.067l-0.206,0.8l-0.307-0.759
				c-0.977-2.411-2.71-4.332-4.591-5.557c-1.886-1.247-3.915-1.771-5.615-1.899c-1.71-0.13-3.101,0.102-4.033,0.331
				c-0.935,0.232-1.435,0.434-1.453,0.39c-0.007-0.017,0.111-0.083,0.344-0.193c0.232-0.111,0.585-0.254,1.053-0.4
				c0.93-0.295,2.347-0.594,4.113-0.509c1.753,0.081,3.878,0.585,5.86,1.862c1.975,1.253,3.798,3.246,4.821,5.772l-0.512,0.041
				l0.018-0.071c0.627-2.667,2.203-4.899,4.042-6.361c1.844-1.491,3.946-2.168,5.697-2.363c1.767-0.201,3.207,0.033,4.152,0.292
				c0.476,0.127,0.836,0.258,1.072,0.363C202.834,55.186,202.955,55.248,202.948,55.265z"/>
		</g>
	</g>
	<g>
		<g>
			<path style="fill:#E0E0E0;" d="M150.733,38.721c0.033,0.034-0.507,0.581-1.425,1.616c-0.919,1.033-2.171,2.602-3.478,4.695
				c-2.627,4.133-5.255,10.719-5.165,18.276c-0.001,0.079-0.001,0.158-0.002,0.23l-0.536,0.044c-0.558-3.687-1.789-7.07-3.342-9.898
				c-1.549-2.836-3.368-5.139-5.088-6.873c-1.717-1.739-3.283-2.965-4.41-3.74c-1.126-0.778-1.778-1.171-1.753-1.212
				c0.009-0.016,0.18,0.066,0.499,0.239c0.313,0.182,0.799,0.413,1.37,0.8c1.171,0.727,2.79,1.919,4.563,3.645
				c1.775,1.721,3.654,4.034,5.253,6.902c1.602,2.86,2.871,6.3,3.441,10.059l-0.536,0.044c0.001-0.074,0.001-0.154,0.002-0.234
				c-0.092-7.689,2.643-14.361,5.382-18.486c1.363-2.091,2.673-3.637,3.645-4.633c0.469-0.514,0.886-0.863,1.148-1.117
				C150.573,38.83,150.72,38.707,150.733,38.721z"/>
		</g>
	</g>
	<g>
		<g>
			<path style="fill-rule:evenodd;clip-rule:evenodd;fill:#F5F5F5;" d="M249.863,270.905l-0.022-0.361v-11.067
				c0.734-0.528,1.29-1.269,1.29-2.245c0-1.385-0.969-2.557-2.267-2.859v-7.541v-1.488l0.045-0.351
				c-0.019-0.229-0.035-0.448-0.045-0.66v-3.648h1.236c0.828,0,1.501-0.67,1.501-1.501c0-0.821-0.673-1.497-1.501-1.497h-1.68
				c0.827-2.454,1.839-7.149-0.258-11.924c-0.982-2.228-2.969-4.337-5.201-6.179c-2.177-1.8-4.611-3.336-6.585-4.466
				c0.09-0.293,0.18-0.682,0.206-1.136c0.025-0.512-0.039-1.105-0.303-1.703v-0.013c-0.277-0.618-0.85-1.198-1.478-1.681
				c-0.577-0.451-1.205-0.824-1.665-1.082l-0.049-1.04c0.126-0.1,0.233-0.222,0.31-0.367c0.084-0.164,0.138-0.351,0.138-0.554
				c0-0.216-0.064-0.422-0.167-0.596c-0.09-0.151-0.216-0.283-0.367-0.386l-0.035-0.889c0.093-0.081,0.17-0.174,0.228-0.287
				c0.074-0.135,0.113-0.287,0.113-0.444c0-0.18-0.048-0.345-0.129-0.486c-0.074-0.113-0.168-0.222-0.28-0.299l-0.045-0.95
				l-0.328-7.255c-0.003-0.084-0.067-0.148-0.155-0.151c-0.09-0.007-0.174,0.064-0.177,0.151l-0.325,7.255l-0.045,0.95
				c-0.11,0.077-0.206,0.187-0.273,0.299c-0.085,0.142-0.139,0.306-0.139,0.486c0,0.158,0.039,0.309,0.116,0.444
				c0.055,0.113,0.136,0.206,0.239,0.287l-0.046,0.889c-0.151,0.103-0.276,0.235-0.367,0.386c-0.103,0.174-0.168,0.38-0.168,0.596
				c0,0.203,0.049,0.39,0.142,0.554c0.073,0.145,0.176,0.267,0.309,0.367l-0.051,1.04c-0.464,0.258-1.092,0.631-1.665,1.082
				c-0.628,0.483-1.201,1.063-1.478,1.681c-0.261,0.602-0.322,1.198-0.303,1.716c0.026,0.454,0.116,0.844,0.207,1.136
				c-1.977,1.13-4.405,2.666-6.585,4.466c-2.239,1.842-4.215,3.951-5.191,6.179c-2.103,4.775-1.092,9.47-0.258,11.924h-1.433
				c-0.828,0-1.504,0.676-1.504,1.497c0,0.831,0.677,1.501,1.504,1.501h1.188v4.309v9.396c-1.272,0.319-2.222,1.475-2.222,2.843
				c0,0.976,0.557,1.713,1.294,2.245v11.067h-6.08v-14.645h-8.411v-3.607h0.692c0.77,0,1.394-0.628,1.394-1.397
				c0-0.766-0.624-1.394-1.394-1.394h-0.744c1.398-3.307,4.969-13.63,0.335-24.167c-1.806-4.115-5.465-8.015-9.589-11.412
				c-4.035-3.32-8.513-6.163-12.159-8.253c0.168-0.538,0.329-1.262,0.37-2.087c0.048-0.956-0.068-2.051-0.554-3.156l-0.006-0.019
				c-0.499-1.14-1.562-2.206-2.718-3.107c-1.069-0.831-2.225-1.523-3.082-1.993l-0.087-1.925c0.235-0.184,0.425-0.409,0.567-0.673
				c0.164-0.306,0.255-0.657,0.255-1.021c0-0.402-0.11-0.779-0.303-1.105c-0.171-0.283-0.399-0.528-0.676-0.705l-0.071-1.658
				c0.174-0.142,0.318-0.319,0.428-0.522c0.132-0.248,0.206-0.528,0.206-0.825c0-0.325-0.093-0.628-0.245-0.892
				c-0.132-0.219-0.306-0.406-0.518-0.55l-0.077-1.755l-0.602-13.395c-0.007-0.155-0.132-0.283-0.293-0.293
				c-0.171-0.006-0.312,0.122-0.319,0.293l-0.602,13.395l-0.081,1.755c-0.208,0.148-0.386,0.335-0.518,0.55
				c-0.154,0.264-0.241,0.567-0.241,0.892c0,0.297,0.074,0.577,0.206,0.825c0.106,0.203,0.254,0.38,0.431,0.522l-0.077,1.658
				c-0.273,0.177-0.509,0.422-0.676,0.705c-0.19,0.325-0.305,0.702-0.305,1.105c0,0.364,0.097,0.715,0.258,1.021
				c0.144,0.264,0.334,0.493,0.569,0.673l-0.087,1.925c-0.857,0.47-2.013,1.163-3.085,1.993c-1.153,0.902-2.216,1.967-2.718,3.107
				c-0.486,1.111-0.609,2.215-0.563,3.175c0.042,0.824,0.209,1.549,0.377,2.087c-3.645,2.09-8.128,4.933-12.159,8.253
				c-4.128,3.397-7.786,7.297-9.596,11.412c-4.63,10.536-1.056,20.859,0.342,24.167h-0.747c-0.77,0-1.397,0.628-1.397,1.394
				c0,0.77,0.628,1.397,1.397,1.397h0.338v3.607h-3.969v73.753l111.306,0.361V270.905z"/>
			<g>
				<g>
					<path style="fill-rule:evenodd;clip-rule:evenodd;fill:#FAFAFA;" d="M240.109,290.147h-14.724v-44.98
						c0-4.066,3.296-7.362,7.362-7.362l0,0c4.066,0,7.362,3.296,7.362,7.362V290.147z"/>
				</g>
			</g>
			<g>
				<g>
					<path style="fill-rule:evenodd;clip-rule:evenodd;fill:#FAFAFA;" d="M183.625,274.389H160.39v-20.336
						c0-6.416,5.201-11.618,11.618-11.618l0,0c6.416,0,11.618,5.201,11.618,11.618V274.389z"/>
				</g>
			</g>
		</g>
		<g>
			<path style="fill:#F5F5F5;" d="M212.299,329.142c-0.144,0-0.26-13.024-0.26-29.087c0-16.068,0.117-29.09,0.26-29.09
				s0.26,13.021,0.26,29.09C212.559,316.118,212.442,329.142,212.299,329.142z"/>
		</g>
	</g>
	<g>
		<g>
			<g>
				<path style="fill-rule:evenodd;clip-rule:evenodd;fill:#E0E0E0;" d="M246.244,376.487v-76.505
					c-1.031-1.125-2.191-2.203-3.421-3.215c-2.777-2.287-5.865-4.246-8.378-5.685c0.115-0.37,0.231-0.87,0.259-1.437
					c0.033-0.659-0.051-1.413-0.382-2.174l-0.005-0.013c-0.346-0.785-1.076-1.519-1.872-2.141c-0.737-0.572-1.533-1.049-2.123-1.373
					l-0.06-1.326c0.158-0.126,0.293-0.282,0.389-0.464c0.113-0.211,0.177-0.452,0.177-0.703c0-0.277-0.076-0.537-0.209-0.761
					c-0.115-0.195-0.275-0.364-0.468-0.486l-0.049-1.142c0.122-0.098,0.22-0.22,0.297-0.359c0.089-0.171,0.14-0.364,0.14-0.568
					c0-0.224-0.063-0.432-0.169-0.615c-0.089-0.151-0.213-0.279-0.355-0.379l-0.053-1.209l-0.415-9.227
					c-0.005-0.107-0.091-0.195-0.202-0.202c-0.118-0.004-0.217,0.084-0.22,0.202l-0.417,9.227l-0.053,1.209
					c-0.144,0.102-0.266,0.231-0.357,0.379c-0.107,0.182-0.169,0.391-0.169,0.615c0,0.204,0.053,0.397,0.144,0.568
					c0.073,0.14,0.175,0.262,0.295,0.359l-0.051,1.142c-0.191,0.122-0.352,0.291-0.468,0.486c-0.131,0.224-0.208,0.484-0.208,0.761
					c0,0.251,0.064,0.492,0.177,0.703c0.095,0.182,0.231,0.339,0.389,0.464l-0.058,1.326c-0.59,0.324-1.386,0.801-2.125,1.373
					c-0.792,0.621-1.524,1.355-1.87,2.141c-0.337,0.765-0.419,1.526-0.388,2.187c0.029,0.568,0.144,1.067,0.259,1.437
					c-2.511,1.439-5.603,3.398-8.375,5.685c-2.846,2.34-5.363,5.026-6.61,7.861c-3.192,7.258-0.732,14.369,0.235,16.647h-0.515
					c-0.53,0-0.963,0.432-0.963,0.96c0,0.53,0.433,0.963,0.963,0.963h0.231v2.484h-5.549v10.088h-4.183v-7.624
					c0.508-0.366,0.892-0.874,0.892-1.546c0-0.954-0.67-1.761-1.562-1.97v-5.195v-1.025l0.033-0.242
					c-0.018-0.157-0.029-0.308-0.033-0.455v-2.513h0.85c0.572,0,1.036-0.461,1.036-1.034c0-0.565-0.463-1.031-1.036-1.031h-1.16
					c0.572-1.69,1.271-4.924-0.178-8.214c-0.674-1.535-2.038-2.988-3.577-4.257c-1.502-1.24-3.176-2.298-4.536-3.077
					c0.062-0.202,0.124-0.47,0.14-0.783c0.018-0.353-0.029-0.761-0.206-1.173l-0.005-0.009c-0.186-0.426-0.581-0.825-1.011-1.158
					c-0.404-0.31-0.832-0.568-1.152-0.745l-0.031-0.716c0.084-0.069,0.155-0.153,0.211-0.253c0.058-0.113,0.093-0.242,0.093-0.382
					c0-0.148-0.04-0.291-0.111-0.41c-0.065-0.104-0.147-0.195-0.251-0.266l-0.029-0.612c0.064-0.055,0.118-0.12,0.16-0.197
					c0.046-0.093,0.075-0.198,0.075-0.306c0-0.124-0.031-0.237-0.089-0.335c-0.051-0.078-0.116-0.153-0.193-0.206l-0.029-0.655
					l-0.227-4.997c-0.004-0.058-0.048-0.102-0.109-0.104c-0.062-0.004-0.117,0.044-0.124,0.104l-0.22,4.997l-0.029,0.655
					c-0.08,0.053-0.146,0.129-0.193,0.206c-0.057,0.098-0.093,0.211-0.093,0.335c0,0.109,0.027,0.213,0.08,0.306
					c0.038,0.078,0.093,0.142,0.16,0.197l-0.029,0.612c-0.1,0.071-0.189,0.162-0.253,0.266c-0.071,0.12-0.111,0.262-0.111,0.41
					c0,0.14,0.034,0.269,0.096,0.382c0.051,0.1,0.122,0.184,0.21,0.253l-0.036,0.716c-0.317,0.178-0.747,0.435-1.147,0.745
					c-0.43,0.333-0.827,0.732-1.016,1.158c-0.18,0.415-0.226,0.825-0.206,1.182c0.013,0.313,0.075,0.581,0.14,0.783
					c-1.364,0.779-3.034,1.837-4.538,3.077c-1.539,1.269-2.904,2.722-3.578,4.257c-1.446,3.289-0.747,6.523-0.177,8.214h-0.982
					c-0.57,0-1.038,0.466-1.038,1.031c0,0.572,0.468,1.034,1.038,1.034h0.818v2.968v6.472c-0.876,0.22-1.528,1.016-1.528,1.959
					c0,0.672,0.384,1.182,0.89,1.546v7.624h-7.868c3.518-9.396,9.145-30.362-0.297-51.849c-4.084-9.292-12.344-18.1-21.667-25.772
					c-9.105-7.495-19.229-13.914-27.463-18.634c0.377-1.215,0.754-2.85,0.847-4.718c0.109-2.158-0.166-4.627-1.251-7.125
					l-0.018-0.038c-1.133-2.58-3.529-4.991-6.14-7.018c-2.413-1.881-5.026-3.447-6.958-4.505l-0.193-4.345
					c0.521-0.415,0.96-0.934,1.275-1.528c0.371-0.69,0.579-1.473,0.579-2.302c0-0.912-0.251-1.764-0.685-2.495
					c-0.382-0.641-0.903-1.189-1.528-1.597l-0.167-3.735c0.395-0.326,0.726-0.728,0.97-1.18v-0.002
					c0.299-0.559,0.464-1.193,0.464-1.861c0-0.734-0.202-1.422-0.548-2.012l-0.005-0.002c-0.293-0.495-0.689-0.918-1.164-1.242
					l-0.18-3.966l-1.34-29.849c2.788,0.1,5.612-0.284,8.205-1.783c2.726-1.571,4.782-3.846,6.084-6.459
					c-1.085,1.42-2.462,2.657-4.112,3.609c-6.661,3.844-15.179,1.562-19.023-5.097c-3.851-6.657-1.564-15.176,5.097-19.02
					c1.648-0.954,3.405-1.533,5.184-1.757c-2.914-0.182-5.918,0.466-8.64,2.034c-7.369,4.254-9.897,13.679-5.643,21.048
					c2.504,4.336,6.825,6.736,11.43,7.329l-1.346,29.947l-0.178,3.968c-0.472,0.324-0.874,0.747-1.167,1.242
					c-0.351,0.59-0.552,1.28-0.552,2.012c0,0.668,0.171,1.304,0.468,1.861c0.244,0.455,0.575,0.856,0.972,1.182l-0.171,3.735
					c-0.623,0.408-1.149,0.956-1.528,1.597c-0.433,0.732-0.685,1.584-0.685,2.495c0,0.829,0.208,1.612,0.581,2.302
					c0.317,0.595,0.754,1.116,1.278,1.531l-0.197,4.343c-1.932,1.058-4.541,2.624-6.959,4.505c-2.608,2.027-5.004,4.438-6.135,7.018
					v0.002c-1.105,2.506-1.38,4.991-1.272,7.16c0.093,1.868,0.468,3.503,0.845,4.718c-8.231,4.72-18.36,11.139-27.463,18.634
					c-9.323,7.672-17.581,16.481-21.664,25.772c-9.447,21.489-3.815,42.455-0.298,51.849v42.739L246.244,376.487z"/>
			</g>
		</g>
		<g>
			<g>
				<path style="fill-rule:evenodd;clip-rule:evenodd;fill:#F5F5F5;" d="M57.842,334.823H47.699v-24.088
					c0-2.801,2.27-5.071,5.071-5.071l0,0c2.801,0,5.071,2.27,5.071,5.071V334.823z"/>
			</g>
		</g>
		<g>
			<g>
				<path style="fill-rule:evenodd;clip-rule:evenodd;fill:#F5F5F5;" d="M192.514,356.93h-10.142v-30.984
					c0-2.801,2.27-5.071,5.071-5.071l0,0c2.801,0,5.071,2.27,5.071,5.071V356.93z"/>
			</g>
		</g>
		<g>
			<g>
				<path style="fill-rule:evenodd;clip-rule:evenodd;fill:#F5F5F5;" d="M234.985,334.823h-10.142v-10.527
					c0-1.889,1.532-3.421,3.421-3.421h3.3c1.889,0,3.421,1.532,3.421,3.421V334.823z"/>
			</g>
		</g>
		<g>
			<g>
				<path style="fill-rule:evenodd;clip-rule:evenodd;fill:#F5F5F5;" d="M73.9,334.823H63.758v-24.088
					c0-2.801,2.27-5.071,5.071-5.071l0,0c2.801,0,5.071,2.27,5.071,5.071V334.823z"/>
			</g>
		</g>
		<g>
			<g>
				<path style="fill-rule:evenodd;clip-rule:evenodd;fill:#F5F5F5;" d="M89.959,334.823H79.817v-24.088
					c0-2.801,2.271-5.071,5.071-5.071l0,0c2.801,0,5.071,2.27,5.071,5.071V334.823z"/>
			</g>
		</g>
		<g>
			<g>
				<path style="fill-rule:evenodd;clip-rule:evenodd;fill:#F5F5F5;" d="M106.017,334.823H95.875v-24.088
					c0-2.801,2.27-5.071,5.071-5.071l0,0c2.801,0,5.071,2.27,5.071,5.071V334.823z"/>
			</g>
		</g>
		<g>
			<g>
				<path style="fill-rule:evenodd;clip-rule:evenodd;fill:#F5F5F5;" d="M122.076,334.823h-10.142v-24.088
					c0-2.801,2.271-5.071,5.071-5.071l0,0c2.801,0,5.071,2.27,5.071,5.071V334.823z"/>
			</g>
		</g>
		<g>
			<g>
				<path style="fill-rule:evenodd;clip-rule:evenodd;fill:#F5F5F5;" d="M138.135,334.823h-10.142v-24.088
					c0-2.801,2.27-5.071,5.071-5.071l0,0c2.801,0,5.071,2.27,5.071,5.071V334.823z"/>
			</g>
		</g>
		<g>
			<g>
				<path style="fill-rule:evenodd;clip-rule:evenodd;fill:#F5F5F5;" d="M154.193,334.823h-10.142v-25.738
					c0-1.889,1.532-3.421,3.421-3.421h3.3c1.889,0,3.421,1.532,3.421,3.421V334.823z"/>
			</g>
		</g>
		<g>
			<g>
				<g>
					<path style="fill:#EBEBEB;" d="M171.413,376.852c-0.213,0-0.386-8.92-0.386-19.921c0-11.004,0.173-19.922,0.386-19.922
						c0.213,0,0.386,8.918,0.386,19.922C171.799,367.932,171.626,376.852,171.413,376.852z"/>
				</g>
			</g>
		</g>
		<g>
			<g>
				<g>
					<path style="fill:#EBEBEB;" d="M202.319,376.852c-0.213,0-0.386-8.92-0.386-19.921c0-11.004,0.173-19.922,0.386-19.922
						c0.213,0,0.386,8.918,0.386,19.922C202.705,367.932,202.533,376.852,202.319,376.852z"/>
				</g>
			</g>
		</g>
	</g>
	<g>
		<g>
			<path style="fill-rule:evenodd;clip-rule:evenodd;fill:#E0E0E0;" d="M461.769,317.221l-0.022-0.361v-11.067
				c0.734-0.528,1.29-1.269,1.29-2.244c0-1.385-0.969-2.557-2.267-2.859v-7.541v-1.488l0.045-0.351
				c-0.019-0.228-0.035-0.448-0.045-0.66V287h1.236c0.828,0,1.501-0.67,1.501-1.501c0-0.821-0.673-1.497-1.501-1.497h-1.68
				c0.827-2.454,1.839-7.149-0.258-11.924c-0.982-2.228-2.969-4.337-5.201-6.179c-2.177-1.8-4.611-3.336-6.585-4.466
				c0.09-0.293,0.18-0.682,0.206-1.137c0.025-0.512-0.039-1.104-0.303-1.703v-0.013c-0.277-0.618-0.85-1.198-1.477-1.681
				c-0.577-0.451-1.205-0.824-1.666-1.082l-0.048-1.04c0.126-0.1,0.233-0.222,0.31-0.367c0.084-0.164,0.138-0.351,0.138-0.554
				c0-0.216-0.064-0.422-0.167-0.596c-0.09-0.151-0.216-0.283-0.367-0.386l-0.035-0.889c0.093-0.08,0.17-0.174,0.228-0.287
				c0.074-0.135,0.113-0.287,0.113-0.444c0-0.18-0.048-0.344-0.129-0.486c-0.074-0.113-0.168-0.222-0.28-0.3l-0.045-0.95
				l-0.328-7.255c-0.003-0.084-0.067-0.148-0.154-0.151c-0.09-0.007-0.174,0.064-0.177,0.151l-0.325,7.255l-0.045,0.95
				c-0.109,0.077-0.206,0.187-0.273,0.3c-0.085,0.142-0.139,0.306-0.139,0.486c0,0.158,0.039,0.309,0.116,0.444
				c0.055,0.113,0.136,0.206,0.239,0.287l-0.046,0.889c-0.151,0.103-0.276,0.235-0.367,0.386c-0.103,0.174-0.168,0.38-0.168,0.596
				c0,0.203,0.049,0.39,0.142,0.554c0.073,0.145,0.176,0.267,0.309,0.367l-0.051,1.04c-0.464,0.258-1.092,0.631-1.665,1.082
				c-0.628,0.483-1.201,1.063-1.478,1.681c-0.261,0.602-0.322,1.198-0.303,1.716c0.026,0.454,0.116,0.844,0.206,1.137
				c-1.977,1.13-4.405,2.666-6.585,4.466c-2.239,1.842-4.215,3.951-5.191,6.179c-2.103,4.775-1.092,9.47-0.258,11.924h-1.433
				c-0.828,0-1.504,0.676-1.504,1.497c0,0.831,0.677,1.501,1.504,1.501h1.188v4.308v9.396c-1.273,0.319-2.222,1.475-2.222,2.843
				c0,0.976,0.557,1.713,1.294,2.244v11.067h-6.08v-14.645h-8.411v-3.607h0.693c0.769,0,1.394-0.628,1.394-1.397
				c0-0.766-0.625-1.394-1.394-1.394h-0.744c1.398-3.307,4.969-13.63,0.335-24.167c-1.806-4.115-5.465-8.015-9.589-11.412
				c-4.035-3.32-8.513-6.163-12.159-8.253c0.168-0.538,0.329-1.262,0.37-2.087c0.049-0.956-0.067-2.051-0.554-3.156l-0.006-0.019
				c-0.499-1.14-1.562-2.206-2.718-3.107c-1.069-0.831-2.225-1.523-3.081-1.993l-0.087-1.925c0.235-0.184,0.425-0.409,0.567-0.673
				c0.164-0.306,0.255-0.657,0.255-1.021c0-0.403-0.11-0.78-0.303-1.105c-0.171-0.283-0.399-0.528-0.676-0.705l-0.07-1.658
				c0.174-0.142,0.318-0.319,0.428-0.522c0.132-0.248,0.206-0.528,0.206-0.825c0-0.325-0.093-0.628-0.245-0.892
				c-0.132-0.219-0.306-0.406-0.518-0.551l-0.077-1.755l-0.602-13.395c-0.007-0.155-0.132-0.283-0.293-0.293
				c-0.171-0.006-0.312,0.122-0.319,0.293l-0.602,13.395l-0.081,1.755c-0.208,0.148-0.386,0.335-0.518,0.551
				c-0.154,0.264-0.241,0.567-0.241,0.892c0,0.297,0.074,0.576,0.206,0.825c0.106,0.203,0.254,0.38,0.431,0.522l-0.077,1.658
				c-0.273,0.177-0.509,0.422-0.676,0.705c-0.19,0.325-0.305,0.702-0.305,1.105c0,0.364,0.097,0.715,0.258,1.021
				c0.144,0.264,0.334,0.493,0.569,0.673l-0.087,1.925c-0.857,0.47-2.013,1.163-3.085,1.993c-1.153,0.902-2.216,1.967-2.718,3.107
				c-0.486,1.111-0.609,2.215-0.563,3.175c0.042,0.824,0.209,1.549,0.377,2.087c-3.645,2.09-8.128,4.933-12.159,8.253
				c-4.128,3.397-7.786,7.297-9.596,11.412c-4.631,10.536-1.056,20.859,0.342,24.167h-0.747c-0.77,0-1.397,0.628-1.397,1.394
				c0,0.77,0.628,1.397,1.397,1.397h0.338v3.607h-3.969v73.753l111.306,0.361V317.221z"/>
			<g>
				<g>
					<path style="fill-rule:evenodd;clip-rule:evenodd;fill:#F5F5F5;" d="M452.015,336.463h-14.724v-44.98
						c0-4.066,3.296-7.362,7.362-7.362l0,0c4.066,0,7.362,3.296,7.362,7.362V336.463z"/>
				</g>
			</g>
			<g>
				<g>
					<path style="fill-rule:evenodd;clip-rule:evenodd;fill:#F5F5F5;" d="M395.531,320.706h-23.235v-20.336
						c0-6.416,5.201-11.618,11.618-11.618l0,0c6.416,0,11.618,5.201,11.618,11.618V320.706z"/>
				</g>
			</g>
		</g>
		<g>
			<path style="fill:#F5F5F5;" d="M424.205,375.459c-0.144,0-0.26-13.024-0.26-29.087c0-16.068,0.117-29.09,0.26-29.09
				s0.26,13.021,0.26,29.09C424.465,362.435,424.349,375.459,424.205,375.459z"/>
		</g>
	</g>
	<g>
		<path style="fill:#E0E0E0;" d="M483.327,376.329c0,0.144-100.141,0.26-223.643,0.26c-123.545,0-223.665-0.117-223.665-0.26
			c0-0.144,100.12-0.26,223.665-0.26C383.186,376.069,483.327,376.186,483.327,376.329z"/>
	</g>
	<g>
		<g>
			<path style="fill:#F5F5F5;" d="M255.897,116.011c0.814-5.912-7.529-10.775-13.799-11.28c-2.99-0.241-6.095,0.216-8.927-0.771
				c-6.137-2.139-8.588-10.067-14.575-12.592c-4.477-1.888-9.63-0.207-13.97,1.977c-4.34,2.184-8.628,4.933-13.477,5.243
				c-4.217,0.27-8.797-1.294-12.487,0.766c-2.75,1.535-4.19,4.703-6.724,6.573c-2.479,1.828-5.714,2.216-8.79,2.383
				c-3.076,0.167-6.261,0.198-9.062,1.481s-5.118,4.245-4.537,7.27L255.897,116.011z"/>
		</g>
	</g>
	<g>
		<g>
			<g>
				<path style="fill:#F5F5F5;" d="M94.23,65.076c0.389-2.823-3.595-5.145-6.589-5.386c-1.428-0.115-2.911,0.103-4.263-0.368
					c-2.93-1.021-4.101-4.807-6.96-6.013c-2.138-0.902-4.599-0.099-6.671,0.944c-2.073,1.043-4.12,2.356-6.436,2.504
					c-2.014,0.129-4.201-0.618-5.963,0.366c-1.313,0.733-2.001,2.246-3.211,3.139c-1.184,0.873-2.728,1.058-4.197,1.138
					c-1.469,0.08-2.99,0.095-4.327,0.707c-1.338,0.612-2.444,2.027-2.167,3.472L94.23,65.076z"/>
			</g>
		</g>
	</g>
	<g>
		<g>
			<g>
				<path style="fill:#EBEBEB;" d="M433.902,122.753c0.305-2.219-2.826-4.045-5.18-4.234c-1.122-0.09-2.288,0.081-3.351-0.289
					c-2.303-0.803-3.224-3.779-5.471-4.727c-1.68-0.709-3.615-0.078-5.244,0.742c-1.629,0.82-3.239,1.852-5.059,1.968
					c-1.583,0.101-3.302-0.486-4.687,0.288c-1.032,0.576-1.573,1.766-2.524,2.467c-0.931,0.687-2.145,0.832-3.299,0.895
					c-1.155,0.063-2.35,0.075-3.402,0.556c-1.051,0.481-1.921,1.593-1.703,2.729L433.902,122.753z"/>
			</g>
		</g>
	</g>
	<g>
		<g>
			<g>
				<path style="fill:#EBEBEB;" d="M437.248,63.997c0.643-4.671-5.949-8.514-10.903-8.913c-2.362-0.19-4.816,0.171-7.054-0.609
					c-4.849-1.69-6.786-7.954-11.517-9.95c-3.537-1.492-7.609-0.164-11.038,1.562c-3.429,1.726-6.818,3.898-10.649,4.143
					c-3.332,0.213-6.951-1.023-9.867,0.605c-2.173,1.213-3.311,3.716-5.313,5.193c-1.959,1.445-4.514,1.751-6.945,1.883
					c-2.431,0.132-4.947,0.157-7.16,1.17c-2.213,1.013-4.044,3.354-3.585,5.744L437.248,63.997z"/>
			</g>
		</g>
	</g>
</g>
<g id="Background_Simple" style="display:none;">
	<path style="display:inline;fill:#F5F5F5;" d="M447.109,75.433l-2.434-4.01c-20.516-33.808-57.609-54.188-96.717-51.715
		c-5.027,0.318-10.033,0.998-14.971,2.056c-35.557,7.611-66.497,34.5-79.321,68.937c-7.542,20.253-9.649,43.571-23.962,59.647
		c-18.627,20.922-50.251,21.579-78.055,20.712c-27.804-0.867-59.449-0.128-77.985,20.877
		c-11.609,13.155-15.299,31.861-14.362,49.478c2.478,46.641,34.979,88.345,76.311,109.074
		c41.332,20.729,89.996,22.586,135.232,13.467c63.37-12.774,123.634-47.855,159.857-102.038S476.092,133.914,447.109,75.433z"/>
</g>
<g id="Floor">
	<g>
		<path style="fill:#263238;" d="M478.919,476.467c0,0.144-102.499,0.26-228.908,0.26c-126.453,0-228.93-0.117-228.93-0.26
			c0-0.144,102.477-0.26,228.93-0.26C376.42,476.207,478.919,476.324,478.919,476.467z"/>
	</g>
</g>
<g id="Plants">
	<g>
		<g>
			<g>
				<path style="fill:#455A64;" d="M118.117,431.214c0.075-13.143,8.673-21.544,8.673-21.544
					C129.413,420.48,118.117,431.214,118.117,431.214z"/>
			</g>
			<g>
				<path style="fill:#455A64;" d="M130.71,425.116c12.082-5.173,23.215-0.642,23.215-0.642
					C145.061,431.19,130.71,425.116,130.71,425.116z"/>
			</g>
			<g>
				<path style="fill:#455A64;" d="M132.143,418.11c-2.1-10.157,3.158-18.044,3.158-18.044
					C139.101,407.984,132.143,418.11,132.143,418.11z"/>
			</g>
			<g>
				<path style="fill:#455A64;" d="M83.451,392.838c18.406,4.9,28.28,20.903,28.28,20.903
					C95.999,413.751,83.451,392.838,83.451,392.838z"/>
			</g>
			<g>
				<path style="fill:#455A64;" d="M112.849,400.381c-0.957-19.84,18.434-42.294,18.434-42.294
					C128.355,382.72,112.849,400.381,112.849,400.381"/>
			</g>
			<g>
				<path style="fill:#455A64;" d="M112.754,343.877c0.823,16.091-6.971,28.418-6.971,28.418
					C103.043,359.534,112.754,343.877,112.754,343.877z"/>
			</g>
			<g>
				<path style="fill:#455A64;" d="M105.277,384.185c-14.505-1.556-22.397-15.988-22.397-15.988
					C100.422,373.112,105.277,384.185,105.277,384.185z"/>
			</g>
			<g>
				<path style="fill:#455A64;" d="M73.99,444.841c11.085-7.063,22.806-4.392,22.806-4.392
					C89.136,448.51,73.99,444.841,73.99,444.841z"/>
			</g>
			<g>
				<path style="fill:#455A64;" d="M111.578,451.352c-2.75,7.583-9.747,10.98-9.747,10.98
					C102.451,455.639,111.578,451.352,111.578,451.352z"/>
			</g>
			<g>
				<path style="fill:#455A64;" d="M109.713,449.217c-8.251,5.078-17.348,3.096-17.348,3.096
					C97.95,446.493,109.713,449.217,109.713,449.217z"/>
			</g>
			<g>
				<g>
					<path style="fill:#263238;" d="M117.129,475.923c-0.011,0-0.021-0.1-0.029-0.295c-0.005-0.234-0.011-0.518-0.018-0.865
						c-0.002-0.815-0.004-1.924-0.007-3.325c0.014-1.443,0.014-3.209-0.03-5.258c-0.033-2.05-0.038-4.384-0.147-6.961
						c-0.125-5.158-0.491-11.292-1.018-18.091c-0.591-6.794-1.415-14.249-2.551-22.037c-2.293-15.582-5.424-29.507-7.942-39.513
						c-1.268-5.002-2.338-9.039-3.118-11.818c-0.365-1.352-0.654-2.423-0.866-3.21c-0.084-0.337-0.153-0.613-0.21-0.839
						c-0.044-0.19-0.061-0.289-0.05-0.293c0.011-0.003,0.049,0.089,0.114,0.273c0.073,0.222,0.163,0.492,0.272,0.821
						c0.241,0.779,0.569,1.839,0.984,3.177c0.855,2.759,1.994,6.781,3.321,11.774c2.635,9.986,5.844,23.921,8.141,39.533
						c1.138,7.803,1.946,15.274,2.505,22.083c0.495,6.814,0.814,12.961,0.88,18.128c0.08,2.582,0.053,4.92,0.051,6.972
						c0.009,2.052-0.029,3.819-0.081,5.263c-0.049,1.4-0.087,2.509-0.115,3.324c-0.019,0.347-0.034,0.63-0.046,0.864
						C117.153,475.824,117.14,475.924,117.129,475.923z"/>
				</g>
			</g>
			<g>
				<g>
					<path style="fill:#263238;" d="M90.507,433.928c0.102-0.148,5.965,3.694,13.094,8.581c7.132,4.889,12.829,8.97,12.727,9.119
						c-0.102,0.148-5.964-3.693-13.095-8.582C96.103,438.159,90.405,434.076,90.507,433.928z"/>
				</g>
			</g>
			<g>
				<g>
					<path style="fill:#263238;" d="M116.327,436.042c-0.03-0.033,0.293-0.382,0.9-0.985c0.72-0.694,1.59-1.532,2.611-2.514
						c2.349-2.203,5.373-5.04,8.718-8.177c3.346-3.137,6.37-5.972,8.719-8.175c1.032-0.968,1.913-1.794,2.642-2.478
						c0.629-0.58,0.993-0.886,1.025-0.855c0.032,0.031-0.27,0.398-0.845,1.033c-0.571,0.639-1.43,1.532-2.5,2.629
						c-2.146,2.185-5.182,5.132-8.596,8.321c-3.412,3.189-6.551,6.022-8.852,8.042c-1.15,1.01-2.09,1.817-2.751,2.362
						C116.738,435.79,116.357,436.075,116.327,436.042z"/>
				</g>
			</g>
			<g>
				<path style="fill:#455A64;" d="M71.883,424.526c0,0,14.99-0.286,21.331,11.514C93.214,436.04,80.427,436.461,71.883,424.526z"/>
			</g>
			<g>
				<path style="fill:#455A64;" d="M92.356,418.509c0,0,12.206,8.706,10.264,21.96C102.62,440.469,92.102,433.185,92.356,418.509z"
					/>
			</g>
			<g>
				<path style="fill:#455A64;" d="M156.647,397.057c0,0-4.816,16.78-20.12,19.795C136.527,416.852,140.439,402.477,156.647,397.057
					z"/>
			</g>
			<g>
				<path style="fill:#455A64;" d="M85.698,334.674c0,0,19.125,12.475,17.007,32.766C102.706,367.44,86.24,357.021,85.698,334.674z"
					/>
			</g>
		</g>
		<g>
			<g>
				<path style="fill:#263238;" d="M149.205,446.39c0.025,0.038-0.419,0.391-1.242,0.996c-0.827,0.598-2.004,1.49-3.431,2.623
					c-2.857,2.26-6.639,5.599-10.356,9.73c-3.71,4.14-6.625,8.259-8.566,11.341c-0.973,1.54-1.734,2.806-2.24,3.692
					c-0.514,0.882-0.817,1.361-0.857,1.341c-0.04-0.02,0.187-0.539,0.634-1.461c0.438-0.926,1.142-2.233,2.071-3.813
					c1.851-3.162,4.733-7.361,8.474-11.535c3.749-4.166,7.615-7.48,10.56-9.66c1.471-1.093,2.695-1.932,3.569-2.467
					C148.689,446.634,149.181,446.352,149.205,446.39z"/>
			</g>
		</g>
		<g>
			<path style="fill:#455A64;" d="M132.563,458.85c-2.439-12.914,4.391-22.805,4.391-22.805
				C139.01,450.266,132.563,458.85,132.563,458.85z"/>
		</g>
		<g>
			<path style="fill:#455A64;" d="M145.432,451.834c8.245-4.839,16.694-2.587,16.694-2.587
				C152.892,454.143,145.432,451.834,145.432,451.834z"/>
		</g>
	</g>
	<g>
		<g>
			<g>
				<path style="fill:#455A64;" d="M401.363,423.552c2.455,1.065,4.261,3.335,5.167,5.853c0.906,2.518,0.988,5.269,0.686,7.928
					c-0.583,5.145-3.507,10.339-6.655,14.45c-4.333-3.781-5.329-10.377-5.625-13.755
					C394.47,432.689,396.868,422.757,401.363,423.552"/>
			</g>
		</g>
		<g>
			<g>
				<path style="fill:#455A64;" d="M405.598,460.276c-0.693-2.908,0.516-6.098,2.749-8.087c2.232-1.989,5.351-2.83,8.332-2.602
					c1.378,0.105,2.868,0.507,3.657,1.642c0.738,1.061,0.655,2.542,0.056,3.687c-0.599,1.145-1.635,2.001-2.729,2.688
					C413.908,459.959,409.843,461.55,405.598,460.276"/>
			</g>
		</g>
		<g>
			<g>
				<g>
					<path style="fill:#263238;" d="M400.042,476.052c-0.026-0.006,0.033-0.381,0.154-1.056c0.136-0.743,0.312-1.704,0.524-2.857
						c0.479-2.388,1.094-5.808,2.949-9.128c1.83-3.312,4.393-5.751,6.55-6.961c1.072-0.62,2.009-0.989,2.671-1.181
						c0.327-0.11,0.594-0.152,0.769-0.195c0.177-0.037,0.272-0.051,0.275-0.038c0.031,0.084-1.501,0.36-3.578,1.643
						c-2.083,1.246-4.559,3.66-6.359,6.916c-1.819,3.251-2.473,6.624-3.017,8.999c-0.262,1.197-0.475,2.168-0.641,2.834
						C400.174,475.692,400.066,476.057,400.042,476.052z"/>
				</g>
			</g>
		</g>
		<g>
			<g>
				<g>
					<path style="fill:#263238;" d="M400.205,431.278c0.013,0,0.031,0.158,0.053,0.461c0.02,0.343,0.046,0.782,0.079,1.326
						c0.062,1.152,0.129,2.82,0.196,4.881c0.134,4.122,0.238,9.821,0.212,16.115c-0.028,6.296-0.182,11.994-0.352,16.115
						c-0.084,2.061-0.166,3.728-0.238,4.879c-0.037,0.544-0.067,0.983-0.09,1.325c-0.025,0.303-0.044,0.461-0.057,0.461
						c-0.013-0.001-0.019-0.16-0.019-0.464c0.005-0.343,0.012-0.783,0.02-1.328c0.029-1.2,0.069-2.855,0.119-4.881
						c0.101-4.122,0.213-9.816,0.241-16.108c0.026-6.29-0.036-11.984-0.102-16.107c-0.032-2.026-0.058-3.683-0.076-4.883
						c-0.003-0.545-0.006-0.985-0.008-1.328C400.185,431.438,400.192,431.278,400.205,431.278z"/>
				</g>
			</g>
		</g>
		<g>
			<g>
				<path style="fill:#455A64;" d="M398.102,463.408c-0.986-6.225-5.181-11.854-10.866-14.576c-1.448-0.693-3.338-1.146-4.528-0.07
					c-1.192,1.079-0.925,3.015-0.342,4.513c2.427,6.234,8.944,10.635,15.633,10.556"/>
			</g>
		</g>
		<g>
			<g>
				<g>
					<path style="fill:#263238;" d="M387.938,453.711c0.011-0.023,0.337,0.12,0.919,0.401c0.292,0.138,0.649,0.31,1.039,0.554
						c0.389,0.243,0.86,0.48,1.322,0.829c0.473,0.334,1,0.689,1.513,1.139c0.539,0.42,1.062,0.926,1.61,1.463
						c1.067,1.1,2.142,2.413,3.06,3.931c0.904,1.527,1.558,3.094,2.016,4.558c0.206,0.74,0.405,1.441,0.509,2.117
						c0.147,0.667,0.201,1.301,0.26,1.877c0.08,0.575,0.053,1.101,0.072,1.56c0.021,0.459-0.009,0.854-0.035,1.177
						c-0.047,0.645-0.086,0.999-0.111,0.997c-0.085-0.003,0.063-1.431-0.19-3.706c-0.075-0.567-0.144-1.19-0.301-1.844
						c-0.116-0.663-0.323-1.35-0.534-2.074c-0.468-1.434-1.12-2.967-2.007-4.467c-0.902-1.491-1.949-2.787-2.986-3.883
						c-0.533-0.535-1.04-1.043-1.563-1.466c-0.497-0.454-1.008-0.816-1.466-1.16C389.205,454.378,387.9,453.784,387.938,453.711z"/>
				</g>
			</g>
		</g>
	</g>
</g>
<g id="Characters">
	<g>
		<g>
			<g>
				<g>
					<g>
						<path style="fill:#263238;" d="M223.414,88.942c-0.972,0.204-2.003,0.208-2.941-0.119c-0.938-0.327-1.773-1.008-2.168-1.919
							c-0.395-0.911-0.298-2.049,0.342-2.808c-1.488-0.087-2.756-1.54-2.639-3.027c0.116-1.486,1.595-2.725,3.079-2.578
							c-0.189-1.718,0.122-3.489,0.885-5.04l8.055,3.332L223.414,88.942z"/>
					</g>
				</g>
				<g>
					<g>
						<path style="fill:#263238;" d="M265.07,80.529c2.679,0.075,5.276-1.909,5.908-4.514c0.19-0.784,0.211-1.64-0.13-2.371
							c-0.341-0.731-1.101-1.299-1.906-1.244c0.986-0.855,1.666-2.094,1.721-3.398c0.055-1.304-0.563-2.648-1.664-3.35
							c-1.101-0.701-2.661-0.662-3.651,0.188c-0.132-1.404-2.957-2.687-4.292-3.141l-3.75,1.961L265.07,80.529z"/>
					</g>
				</g>
				<g>
					<g>
						<g>
							<g>
								<g>
									<path style="fill:#C8877F;" d="M259.833,126.019l-1.007-7.976c0,0,11.724-3.302,10.428-15.266
										c-0.626-5.778-2.883-17.572-5.05-28.222c-2.329-11.451-13.062-19.19-24.662-17.788l-1.153,0.139
										c-12.341,2.228-17.344,13.954-14.775,26.229l6.847,46.883l19.155,10.092L259.833,126.019z"/>
								</g>
							</g>
							<g>
								<g>
									<g>
										<g>
											<g>
												<path style="fill:#A06763;" d="M258.923,118.014c0,0-7.574,1.381-16.207-2.69c0,0,4.72,8.153,16.511,5.636
													L258.923,118.014z"/>
											</g>
										</g>
									</g>
								</g>
							</g>
							<g>
								<g>
									<g>
										<g>
											<g>
												<g>
													<g>
														<g>
															<g>
																<path style="fill:#263238;" d="M262.962,85.671c-0.184,0.248-1.592-0.552-3.428-0.326
																	c-1.836,0.2-3.07,1.308-3.296,1.107c-0.11-0.088,0.057-0.515,0.592-1.013c0.526-0.495,1.461-1.028,2.605-1.161
																	c1.144-0.132,2.157,0.173,2.762,0.537C262.815,85.179,263.054,85.559,262.962,85.671z"/>
															</g>
														</g>
													</g>
												</g>
											</g>
										</g>
									</g>
								</g>
							</g>
							<g>
								<g>
									<g>
										<g>
											<g>
												<g>
													<g>
														<g>
															<g>
																<path style="fill:#263238;" d="M245.003,87.683c-0.185,0.248-1.595-0.552-3.429-0.325
																	c-1.836,0.2-3.069,1.307-3.296,1.106c-0.11-0.088,0.055-0.515,0.592-1.013c0.526-0.495,1.461-1.028,2.605-1.161
																	c1.144-0.132,2.157,0.173,2.762,0.537C244.853,87.192,245.094,87.571,245.003,87.683z"/>
															</g>
														</g>
													</g>
												</g>
											</g>
										</g>
									</g>
								</g>
							</g>
							<g>
								<g>
									<g>
										<g>
											<g>
												<g>
													<g>
														<g>
															<path style="fill:#263238;" d="M252.646,96.043c-0.021-0.103,1.096-0.439,2.917-0.898
																c0.463-0.105,0.895-0.252,0.936-0.581c0.069-0.352-0.188-0.834-0.481-1.352c-0.578-1.081-1.182-2.215-1.817-3.402
																c-2.54-4.85-4.438-8.86-4.242-8.961c0.197-0.1,2.414,3.749,4.953,8.598c0.615,1.197,1.203,2.338,1.762,3.431
																c0.242,0.511,0.62,1.079,0.466,1.811c-0.084,0.365-0.397,0.662-0.688,0.778c-0.29,0.128-0.552,0.165-0.783,0.207
																C253.819,95.998,252.666,96.146,252.646,96.043z"/>
														</g>
													</g>
												</g>
											</g>
										</g>
									</g>
								</g>
							</g>
							<g>
								<g>
									<g>
										<g>
											<g>
												<g>
													<g>
														<g>
															<path style="fill:#263238;" d="M247.397,97.966c0.297-0.053,0.541,1.939,2.417,3.147
																c1.874,1.213,3.972,0.733,4.021,1.009c0.043,0.122-0.426,0.444-1.32,0.577c-0.876,0.137-2.194,0.009-3.342-0.73
																c-1.145-0.742-1.732-1.845-1.899-2.654C247.096,98.491,247.259,97.97,247.397,97.966z"/>
														</g>
													</g>
												</g>
											</g>
										</g>
									</g>
								</g>
							</g>
							<g>
								<g>
									<g>
										<g>
											<path style="fill:#263238;" d="M243.943,75.981c-0.121,0.521-1.982,0.506-4.105,1.026
												c-2.133,0.477-3.794,1.318-4.134,0.905c-0.153-0.199,0.093-0.705,0.737-1.273c0.638-0.566,1.693-1.159,2.969-1.459
												c1.276-0.298,2.485-0.235,3.308-0.011C243.547,75.391,243.992,75.735,243.943,75.981z"/>
										</g>
									</g>
								</g>
							</g>
							<g>
								<g>
									<g>
										<g>
											<path style="fill:#263238;" d="M261.026,75.479c-0.273,0.456-1.589,0.176-3.113,0.339
												c-1.529,0.11-2.775,0.619-3.124,0.219c-0.155-0.196-0.004-0.638,0.512-1.101c0.507-0.46,1.396-0.894,2.445-0.989
												c1.049-0.093,2,0.175,2.581,0.539C260.915,74.85,261.143,75.258,261.026,75.479z"/>
										</g>
									</g>
								</g>
							</g>
							<g>
								<g>
									<g>
										<path style="fill:#263238;" d="M262.393,69.215c0,0-4.055-7.101-7.873-8.41c-4.623-1.586-5.924,3.435-10.226,2.775
											c-4.303-0.661-8.717-2.185-12.581,1.546c-4.23,4.084-1.75,6.291-1.397,11.626c1.431,21.631-1.759,28.183-4.099,18.195
											c-0.256-1.094-3.441-1.604-4.463-6.235c-1.326-6.004-2.451-13.353-1.615-17.829c0.704-3.772,2.472-6.533,5.854-9.751
											c5.338-5.079,13.383-6.146,18.921-6.257C250.45,54.766,261.76,59.787,262.393,69.215z"/>
									</g>
								</g>
							</g>
							<g>
								<g>
									<g>
										<path style="fill:#C8877F;" d="M226.938,94.53c-0.298-1.835-2.063-3.098-3.879-2.702
											c-2.202,0.481-4.529,2.046-3.826,6.632c1.248,8.136,9.159,5.205,9.137,4.969C228.356,103.27,227.49,97.93,226.938,94.53z"
											/>
									</g>
								</g>
							</g>
							<g>
								<g>
									<g>
										<path style="fill:#A06763;" d="M226.131,100.64c-0.04-0.021-0.127,0.121-0.349,0.268
											c-0.217,0.143-0.607,0.278-1.056,0.184c-0.908-0.184-1.841-1.437-2.105-2.897c-0.134-0.737-0.087-1.466,0.086-2.09
											c0.157-0.633,0.478-1.108,0.899-1.251c0.415-0.166,0.761,0.046,0.896,0.26c0.144,0.211,0.117,0.381,0.163,0.388
											c0.026,0.017,0.154-0.163,0.037-0.489c-0.059-0.156-0.183-0.334-0.398-0.461c-0.22-0.129-0.519-0.166-0.815-0.087
											c-0.621,0.139-1.097,0.803-1.287,1.488c-0.224,0.693-0.294,1.515-0.144,2.343c0.304,1.632,1.378,3.037,2.606,3.196
											c0.595,0.062,1.046-0.184,1.263-0.414C226.147,100.839,226.161,100.651,226.131,100.64z"/>
									</g>
								</g>
							</g>
						</g>
						<g>
							<g>
								<path style="fill:#263238;" d="M227.866,78.9c1.148,0.596,2.359,1.207,3.652,1.179c1.293-0.028,2.666-0.939,2.729-2.231
									c0.028-0.58-0.191-1.223,0.13-1.708c0.383-0.578,1.225-0.513,1.919-0.523c2.405-0.035,4.634-2.008,4.959-4.391
									c0.715,0.834,2.124,0.623,2.969-0.078c0.845-0.702,1.318-1.74,1.936-2.648c0.618-0.908,1.536-1.764,2.634-1.741
									c0.614,0.013,1.223,0.304,1.824,0.177c1.061-0.225,1.433-1.544,1.467-2.628c0.034-1.084,0.01-2.342,0.848-3.03
									c0.777-0.638,1.906-0.46,2.91-0.433c1.005,0.026,2.252-0.36,2.388-1.356c0.071-0.523-0.21-1.029-0.544-1.437
									c-1.514-1.849-4.395-2.403-6.486-1.248c-1.125-2.602-3.903-4.398-6.738-4.355c-2.835,0.043-5.557,1.922-6.603,4.557
									c-1.915-1.358-4.503-1.712-6.713-0.919c-2.21,0.793-3.982,2.711-4.597,4.977c-2.05-0.283-4.222,0.759-5.284,2.535
									c-1.062,1.776-0.954,4.182,0.265,5.855c-1.367,1.016-2.447,2.627-2.273,4.321c0.174,1.694,2.024,3.18,3.602,2.538
									c-0.5,1.396,0.252,3.118,1.616,3.699c1.364,0.581,3.127-0.069,3.787-1.396"/>
							</g>
						</g>
					</g>
					<g>
						<g>
							<g>
								<g>
									<path style="fill:#FF725E;" d="M251.031,69.059c0.02-0.003,0.039,0.002,0.059,0c0.049-0.003,0.099-0.008,0.148-0.009
										L251.031,69.059z"/>
								</g>
							</g>
						</g>
					</g>
					<g>
						<g>
							<path style="fill:#263238;" d="M240.319,115.696c4.786,1.946,11.054,3.289,18.604,2.318c0,0,12.199-3.394,10.331-15.237
								c0,0,0.089,10.222-8.327,10.691c-4.832,0.269-5.917-7.426-5.917-7.426l-1.971,0.201l-0.944,4.432
								c-1.494,3.846-6.753,2.82-10.101,1.752c-4.773-1.523-9.951-5.304-12.171-18.623l-2.275,1.563l0.662,4.635
								C229.211,106.997,233.773,113.035,240.319,115.696z"/>
						</g>
					</g>
				</g>
				<g>
					<g>
						<path style="fill:#455A64;" d="M219.036,77.251c0,0-1.045-16.117,8.99-21.712c8.779-4.895,18.691-5.725,25.533-2.337
							c6.209,3.074,9.919,10.607,9.919,10.607L219.036,77.251z"/>
					</g>
				</g>
			</g>
			<g>
				<g>
					<g>
						<g>
							<g>
								<g>
									<g>
										<g>
											<g>
												<g>
													<g>
														<g>
															<g>
																<g>
																	<g>
																		<g>
																			<path style="fill:#455A64;" d="M255.231,425.471l-7.687,27.076c0,0,24.94,16.907,24.007,22.049l-53.035-13.019
																				l10.247-42.68L255.231,425.471z"/>
																		</g>
																	</g>
																</g>
															</g>
														</g>
													</g>
												</g>
											</g>
										</g>
									</g>
								</g>
							</g>
						</g>
						<g>
							<g>
								<g>
									<g>
										<g>
											<g>
												<g>
													<g>
														<g>
															<g>
																<g>
																	<g>
																		<g>
																			<g>
																				<path style="fill:#E0E0E0;" d="M231.709,446.224c-1.096,0.029-2.088,1.008-2.105,2.104
																					c-0.016,1.095,0.972,2.114,2.067,2.104c1.095-0.009,2.323-1.149,2.217-2.24c-0.106-1.09-1.332-2.222-2.393-1.95
																					"/>
																			</g>
																		</g>
																	</g>
																</g>
															</g>
														</g>
													</g>
												</g>
											</g>
										</g>
									</g>
								</g>
							</g>
						</g>
						<g style="opacity:0.6;">
							<g>
								<g>
									<g>
										<g>
											<g>
												<g>
													<g>
														<g>
															<g>
																<g>
																	<g>
																		<g>
																			<path style="fill:#FFFFFF;" d="M218.516,461.578l1.201-4.261l50.4,14.076c0,0,2.108,1.607,1.434,3.205
																				L218.516,461.578z"/>
																		</g>
																	</g>
																</g>
															</g>
														</g>
													</g>
												</g>
											</g>
										</g>
									</g>
								</g>
							</g>
						</g>
						<g>
							<g>
								<g>
									<g>
										<g>
											<g>
												<g>
													<g>
														<g>
															<g>
																<g>
																	<g>
																		<g>
																			<g>
																				<path style="fill:#263238;" d="M248.47,452.489c-0.072,0.257-1.396,0.057-2.874,0.576
																					c-1.492,0.482-2.425,1.442-2.638,1.281c-0.227-0.109,0.54-1.562,2.341-2.16
																					C247.094,451.572,248.584,452.265,248.47,452.489z"/>
																			</g>
																		</g>
																	</g>
																</g>
															</g>
														</g>
													</g>
												</g>
											</g>
										</g>
									</g>
								</g>
							</g>
						</g>
						<g>
							<g>
								<g>
									<g>
										<g>
											<g>
												<g>
													<g>
														<g>
															<g>
																<g>
																	<g>
																		<g>
																			<g>
																				<path style="fill:#263238;" d="M253.468,456.155c-0.002,0.265-1.232,0.431-2.38,1.31
																					c-1.174,0.845-1.687,1.975-1.942,1.901c-0.254-0.019-0.06-1.58,1.388-2.646
																					C251.972,455.641,253.522,455.907,253.468,456.155z"/>
																			</g>
																		</g>
																	</g>
																</g>
															</g>
														</g>
													</g>
												</g>
											</g>
										</g>
									</g>
								</g>
							</g>
						</g>
						<g>
							<g>
								<g>
									<g>
										<g>
											<g>
												<g>
													<g>
														<g>
															<g>
																<g>
																	<g>
																		<g>
																			<g>
																				<path style="fill:#263238;" d="M254.992,463.588c-0.249-0.003-0.292-1.385,0.722-2.64
																					c1.005-1.263,2.363-1.522,2.42-1.28c0.094,0.249-0.879,0.817-1.695,1.86
																					C255.598,462.552,255.256,463.626,254.992,463.588z"/>
																			</g>
																		</g>
																	</g>
																</g>
															</g>
														</g>
													</g>
												</g>
											</g>
										</g>
									</g>
								</g>
							</g>
						</g>
						<g>
							<g>
								<g>
									<g>
										<g>
											<g>
												<g>
													<g>
														<g>
															<g>
																<g>
																	<g>
																		<g>
																			<g>
																				<path style="fill:#263238;" d="M249.537,446.124c-0.167,0.209-1.267-0.44-2.755-0.7
																					c-1.483-0.29-2.743-0.078-2.823-0.334c-0.104-0.224,1.243-0.91,2.992-0.579
																					C248.702,444.829,249.714,445.952,249.537,446.124z"/>
																			</g>
																		</g>
																	</g>
																</g>
															</g>
														</g>
													</g>
												</g>
											</g>
										</g>
									</g>
								</g>
							</g>
						</g>
					</g>
					<g>
						<g>
							<g>
								<g>
									<g>
										<g>
											<g>
												<g>
													<g>
														<g>
															<g>
																<g>
																	<g>
																		<g>
																			<path style="fill:#455A64;" d="M236.676,432.491l-1.105,28.125c0,0,28.216,10.569,28.518,15.787l-54.609-0.185
																				l-0.076-43.893L236.676,432.491z"/>
																		</g>
																	</g>
																</g>
															</g>
														</g>
													</g>
												</g>
											</g>
										</g>
									</g>
								</g>
							</g>
						</g>
						<g>
							<g>
								<g>
									<g>
										<g>
											<g>
												<g>
													<g>
														<g>
															<g>
																<g>
																	<g>
																		<g>
																			<g>
																				<path style="fill:#E0E0E0;" d="M218.693,458.193c-1.058,0.285-1.792,1.471-1.551,2.54
																					c0.242,1.069,1.441,1.826,2.504,1.559c1.063-0.266,1.988-1.663,1.628-2.698
																					c-0.36-1.035-1.817-1.847-2.784-1.333"/>
																			</g>
																		</g>
																	</g>
																</g>
															</g>
														</g>
													</g>
												</g>
											</g>
										</g>
									</g>
								</g>
							</g>
						</g>
						<g style="opacity:0.6;">
							<g>
								<g>
									<g>
										<g>
											<g>
												<g>
													<g>
														<g>
															<g>
																<g>
																	<g>
																		<g>
																			<path style="fill:#FFFFFF;" d="M209.48,476.218l0.165-4.424l52.297,1.832c0,0,2.428,1.066,2.147,2.778
																				L209.48,476.218z"/>
																		</g>
																	</g>
																</g>
															</g>
														</g>
													</g>
												</g>
											</g>
										</g>
									</g>
								</g>
							</g>
						</g>
						<g>
							<g>
								<g>
									<g>
										<g>
											<g>
												<g>
													<g>
														<g>
															<g>
																<g>
																	<g>
																		<g>
																			<g>
																				<path style="fill:#263238;" d="M236.457,460.341c-0.01,0.267-1.344,0.383-2.658,1.236
																					c-1.337,0.819-2.018,1.972-2.263,1.865c-0.245-0.053,0.158-1.646,1.768-2.65
																					C234.904,459.773,236.516,460.097,236.457,460.341z"/>
																			</g>
																		</g>
																	</g>
																</g>
															</g>
														</g>
													</g>
												</g>
											</g>
										</g>
									</g>
								</g>
							</g>
						</g>
						<g>
							<g>
								<g>
									<g>
										<g>
											<g>
												<g>
													<g>
														<g>
															<g>
																<g>
																	<g>
																		<g>
																			<g>
																				<path style="fill:#263238;" d="M242.177,462.73c0.06,0.258-1.096,0.708-2.006,1.833
																					c-0.943,1.098-1.175,2.317-1.441,2.304c-0.251,0.041-0.43-1.521,0.728-2.898
																					C240.603,462.582,242.172,462.475,242.177,462.73z"/>
																			</g>
																		</g>
																	</g>
																</g>
															</g>
														</g>
													</g>
												</g>
											</g>
										</g>
									</g>
								</g>
							</g>
						</g>
						<g>
							<g>
								<g>
									<g>
										<g>
											<g>
												<g>
													<g>
														<g>
															<g>
																<g>
																	<g>
																		<g>
																			<g>
																				<path style="fill:#263238;" d="M245.407,469.596c-0.242,0.056-0.609-1.277,0.081-2.736
																					c0.68-1.463,1.939-2.035,2.051-1.813c0.15,0.22-0.662,1-1.21,2.206
																					C245.752,468.446,245.672,469.57,245.407,469.596z"/>
																			</g>
																		</g>
																	</g>
																</g>
															</g>
														</g>
													</g>
												</g>
											</g>
										</g>
									</g>
								</g>
							</g>
						</g>
						<g>
							<g>
								<g>
									<g>
										<g>
											<g>
												<g>
													<g>
														<g>
															<g>
																<g>
																	<g>
																		<g>
																			<g>
																				<path style="fill:#263238;" d="M235.998,453.904c-0.112,0.243-1.335-0.129-2.842-0.032
																					c-1.509,0.067-2.684,0.569-2.822,0.339c-0.154-0.193,0.995-1.177,2.772-1.266
																					C234.881,452.841,236.129,453.694,235.998,453.904z"/>
																			</g>
																		</g>
																	</g>
																</g>
															</g>
														</g>
													</g>
												</g>
											</g>
										</g>
									</g>
								</g>
							</g>
						</g>
					</g>
					<g>
						<g>
							<g>
								<g>
									<g>
										<g>
											<g>
												<path style="fill:#263238;" d="M235.571,452.567c-0.055,0-0.106,0.794-0.152,2.198
													c-0.045,1.403-0.084,3.416-0.113,5.852l-0.002,0.179l0.173,0.068c2.809,1.112,6.238,2.481,9.892,4.058
													c4.752,2.042,8.956,4.1,11.951,5.683c1.395,0.76,2.574,1.401,3.525,1.919c0.827,0.464,1.297,0.702,1.32,0.665
													c0.024-0.038-0.401-0.348-1.19-0.879c-0.792-0.527-1.962-1.252-3.435-2.104c-2.951-1.692-7.147-3.827-11.915-5.876
													c-3.667-1.583-7.121-2.915-9.959-3.961l0.17,0.247c-0.029-2.436-0.068-4.448-0.113-5.852
													C235.677,453.361,235.626,452.567,235.571,452.567z"/>
											</g>
										</g>
									</g>
								</g>
							</g>
						</g>
					</g>
					<g>
						<g>
							<g>
								<g>
									<g>
										<g>
											<g>
												<g>
													<g>
														<path style="fill:#263238;" d="M205.667,226.897l-3.387,15.27l-0.92,84.895c0,0,3.018,39.348,0.84,63.078
															c-1.891,20.608,0,60.429,0,60.429l36.818,1.978l12.079-121.399l7.39-74.648l13.279-34.018L205.667,226.897z"/>
													</g>
												</g>
											</g>
										</g>
									</g>
								</g>
							</g>
						</g>
					</g>
					<g>
						<g>
							<g>
								<g>
									<g>
										<g>
											<g>
												<g>
													<g>
														<polygon style="fill:#263238;" points="280.556,230.845 287.605,344.281 265.067,437.645 263.475,443.101 
															230.461,435.445 244.962,221.263 														"/>
													</g>
												</g>
											</g>
										</g>
									</g>
								</g>
							</g>
						</g>
					</g>
					<g>
						<g>
							<g>
								<g>
									<g>
										<g>
											<g>
												<g>
													<g>
														<g>
															<path style="fill:#455A64;" d="M258.398,257.392c0.011,0,0.016,0.171,0.014,0.503
																c-0.005,0.363-0.013,0.851-0.022,1.474c-0.035,1.331-0.086,3.233-0.15,5.665c-0.118,4.921-0.439,12.036-0.9,20.825
																c-0.971,17.574-2.821,41.828-5.754,68.524c-2.886,26.709-6.095,50.814-8.443,68.255
																c-1.192,8.692-2.159,15.737-2.833,20.647c-0.344,2.409-0.612,4.292-0.8,5.609c-0.095,0.616-0.169,1.098-0.224,1.457
																c-0.054,0.328-0.087,0.495-0.099,0.493c-0.011-0.001,0-0.171,0.033-0.502c0.04-0.361,0.093-0.846,0.16-1.465
																c0.16-1.321,0.388-3.21,0.68-5.625c0.625-4.917,1.522-11.971,2.628-20.674c2.231-17.455,5.368-41.565,8.252-68.265
																c2.932-26.685,4.853-50.92,5.941-68.48c0.519-8.782,0.91-15.891,1.106-20.808c0.116-2.43,0.208-4.331,0.271-5.66
																c0.037-0.622,0.066-1.109,0.087-1.472C258.37,257.561,258.387,257.392,258.398,257.392z"/>
														</g>
													</g>
												</g>
											</g>
										</g>
									</g>
								</g>
							</g>
						</g>
					</g>
				</g>
				<path style="fill:#455A64;" d="M278.617,201.876l-2.981-44.533l-8.244-25.643l-5.486-3.244l-1.765-6.703l-32.16-3.328
					l-2.118,5.825l-4.103,1.851l-15.753,27.006l-0.944,58.148l-2.653,17.682c-0.365,1.415-0.756,2.893-1.169,4.389
					c-2.118,7.678-12.178,83.661-12.178,83.661l0.363,0.005l-13.247,99.973c0,0,28.297,11.424,42.677,7.451
					c0,0,19.844-8.067,26.457-6.351c6.613,1.716,16.673,9.942,25.474,11.126c8.801,1.184,12.203-4.775,17.784-6.099
					c5.582-1.324,14.926,3.537,14.926,3.537L278.617,201.876z"/>
				<path style="opacity:0.3;" d="M245.313,418.065l17.681-181.337L255.45,422.85l-2.504-1.376
					C252.945,421.474,246.839,418.284,245.313,418.065z"/>
				<g>
					<path style="fill:#263238;" d="M261.906,128.456c-0.005,0.036-0.513,0.004-1.427-0.083c-1.012-0.108-2.31-0.248-3.868-0.415
						c-3.358-0.402-7.814-0.936-12.739-1.526c-4.924-0.608-9.377-1.157-12.733-1.571c-1.553-0.183-2.849-0.335-3.859-0.454
						c-0.913-0.118-1.405-0.111-1.417-0.158c-0.009-0.112,2.05-0.078,5.314,0.246c3.272,0.303,7.782,0.808,12.758,1.42
						c4.974,0.612,9.471,1.214,12.722,1.678c1.549,0.233,2.841,0.427,3.847,0.579C261.411,128.321,261.91,128.42,261.906,128.456z"
						/>
				</g>
				<g>
					<path style="fill:#263238;" d="M204.49,314.631c0.143,0.019-2.593,20.995-6.109,46.845
						c-3.517,25.859-6.483,46.799-6.626,46.779c-0.142-0.019,2.592-20.991,6.11-46.849
						C201.381,335.556,204.348,314.612,204.49,314.631z"/>
				</g>
				<g>
					<path style="fill:#263238;" d="M239.261,387.645c-0.009,0-0.016-0.091-0.02-0.267c-0.002-0.206-0.004-0.464-0.007-0.783
						c0.006-0.728,0.014-1.733,0.024-3.008c0.03-2.653,0.072-6.421,0.124-11.059c0.093-9.338,0.11-22.238,0.097-36.487
						c-0.013-14.254,0.045-27.16,0.225-36.499c0.087-4.67,0.182-8.448,0.281-11.058c0.051-1.273,0.091-2.278,0.121-3.005
						c0.018-0.318,0.033-0.575,0.044-0.781c0.013-0.176,0.024-0.266,0.033-0.266c0.009,0,0.016,0.091,0.02,0.267
						c0.002,0.206,0.004,0.464,0.007,0.783c-0.006,0.727-0.013,1.733-0.023,3.007c-0.028,2.653-0.067,6.42-0.115,11.058
						c-0.086,9.338-0.086,22.239-0.073,36.494c0.014,14.25-0.062,27.154-0.249,36.493c-0.093,4.669-0.19,8.448-0.29,11.058
						c-0.052,1.274-0.092,2.278-0.122,3.006c-0.018,0.318-0.033,0.575-0.045,0.781C239.281,387.556,239.27,387.646,239.261,387.645z
						"/>
				</g>
				<g>
					<path style="fill:#263238;" d="M240.183,403.075c0.012,0.014-0.108,0.132-0.346,0.346c-0.289,0.249-0.639,0.552-1.062,0.917
						c-0.459,0.403-1.035,0.877-1.754,1.361c-0.712,0.493-1.493,1.103-2.448,1.634c-0.471,0.281-0.962,0.573-1.472,0.877
						c-0.515,0.3-1.082,0.553-1.653,0.848c-1.133,0.61-2.416,1.102-3.751,1.653c-2.71,0.998-5.783,1.857-9.083,2.362
						c-3.307,0.464-6.498,0.523-9.381,0.344c-1.438-0.145-2.808-0.248-4.068-0.507c-0.631-0.118-1.247-0.198-1.827-0.338
						c-0.576-0.145-1.131-0.284-1.662-0.418c-1.067-0.235-1.99-0.596-2.814-0.863c-0.828-0.258-1.516-0.546-2.071-0.801
						c-0.51-0.229-0.932-0.418-1.28-0.574c-0.29-0.136-0.438-0.216-0.431-0.232c0.007-0.017,0.17,0.031,0.473,0.136
						c0.357,0.131,0.79,0.29,1.312,0.482c0.563,0.224,1.258,0.483,2.088,0.713c0.826,0.239,1.749,0.573,2.813,0.783
						c0.529,0.122,1.081,0.249,1.654,0.382c0.576,0.128,1.188,0.197,1.814,0.305c1.251,0.239,2.608,0.324,4.031,0.455
						c2.853,0.15,6.004,0.077,9.273-0.381c3.262-0.499,6.3-1.334,8.99-2.296c1.325-0.533,2.601-1.004,3.73-1.592
						c0.569-0.283,1.135-0.524,1.65-0.813c0.511-0.291,1.004-0.572,1.475-0.84c0.959-0.506,1.747-1.09,2.47-1.557
						c0.73-0.458,1.321-0.905,1.796-1.282c0.446-0.334,0.815-0.61,1.119-0.838C240.028,403.153,240.171,403.061,240.183,403.075z"/>
				</g>
				<g>
					<path style="fill:#263238;" d="M254.069,398.052c-0.054,0.068-0.612-0.349-1.598-0.846c-0.982-0.5-2.426-1.026-4.094-1.217
						c-1.669-0.182-3.194,0.013-4.262,0.283c-1.071,0.267-1.707,0.551-1.745,0.473c-0.028-0.049,0.558-0.456,1.642-0.826
						c1.078-0.372,2.675-0.639,4.422-0.447c1.746,0.199,3.245,0.811,4.214,1.412C253.625,397.484,254.107,398.01,254.069,398.052z"
						/>
				</g>
				<g>
					<path style="fill:#263238;" d="M178.193,401.773c-0.026-0.025,0.119-0.204,0.409-0.511c0.278-0.318,0.761-0.705,1.408-1.098
						c0.647-0.4,1.502-0.737,2.49-0.949c0.993-0.179,2.119-0.208,3.267,0.005c2.316,0.436,4.094,1.772,5.062,2.919
						c0.479,0.585,0.824,1.094,0.996,1.48c0.188,0.377,0.274,0.591,0.242,0.607c-0.091,0.051-0.507-0.782-1.51-1.839
						c-1-1.039-2.705-2.243-4.887-2.655c-1.083-0.201-2.141-0.187-3.083-0.044c-0.936,0.176-1.758,0.457-2.398,0.8
						C178.9,401.161,178.266,401.851,178.193,401.773z"/>
				</g>
			</g>
		</g>
		<g style="opacity:0.3;">
			<path d="M205.594,208.457l-1.152,6.939c3.883,8.752,14.296,12.831,23.606,15.067c7.492,1.799,15.438,2.933,22.835,0.777
				c7.397-2.156,14.071-8.351,14.648-16.034C244.974,217.452,224.915,215.831,205.594,208.457z"/>
		</g>
		<g>
			<g>
				<g>
					<path style="fill:#E0E0E0;" d="M278.972,96.115c0,0-5.884,11.426-6.487,15.525c-0.094,0.641-0.133,1.296-0.13,1.946
						c0.015,3.804,1.892,7.362,4.935,9.645l0.137,0.103l10.006-3.134l-1.085-7.354l-5.782-16.395L278.972,96.115z"/>
					<path style="fill:#FFBE9D;" d="M320.507,93.054c0.281-0.692,1.269-0.889,1.905-0.497c0.636,0.392,0.925,1.192,0.906,1.938
						c-0.019,0.747-0.295,1.46-0.567,2.155c-0.901,2.302-1.803,4.605-2.704,6.907c-0.236,0.602-0.515,1.254-1.088,1.553
						c-0.574,0.299-1.481-0.068-1.417-0.711"/>
					<path style="fill:#FFBE9D;" d="M281.653,91.267c0,0,2.17,10.247,8.077,13.14c5.907,2.893,23.356,3.871,23.356,3.871
						l3.069,7.001l-31.006,2.388c0,0-0.541-2.17-2.5-5.786c-1.96-3.617-1.877-6.51-2.099-9.644c-0.222-3.134,0-12.296,0-12.296
						L281.653,91.267z"/>
					<path style="fill:#E0E0E0;" d="M281.894,71.738c0,0-2.734,1.253-1.808,10.006c0.466,4.402,1.111,8.798,1.638,12.08
						c0.559,3.483,2.063,6.744,4.343,9.436l4.774,5.639c0.812,0.959,2.051,1.447,3.298,1.299l13.713-1.62
						c2.137-0.253,4.293,0.284,6.062,1.509l0,0c0,0,2.819-3.028,4.145-6.283c1.326-3.255,3.255-16.033,3.255-16.033L281.894,71.738z
						"/>
					<path style="fill:#FFBE9D;" d="M278.196,86.485c0,0-0.154-4.76,1.89-4.741c2.438,0.022,2.504,1.801,2.532,6.028
						c0.031,4.791-0.967,7.956-2.051,8.679c-1.084,0.723-2.286-0.07-2.524-2.722C277.803,91.077,278.196,86.485,278.196,86.485z"/>
					<path style="fill:#FF725E;" d="M319.798,67.001c-1.104-1.997-2.632-3.744-4.39-5.199c-6.167-5.105-15.311-6.301-22.584-2.953
						c-5.554,2.557-10.434,8.107-12.375,14.739c4.946,5.308,14.045,11.473,20.589,14.053c6.544,2.58,13.849,3.805,20.181,0.74
						l0.311-0.987c0.799-3.675,0.909-5.839,0.897-9.677C322.417,73.956,321.618,70.292,319.798,67.001z"/>
				</g>
				<g>
					<path style="fill:#FAFAFA;" d="M277.988,119.151c-0.02,0.021-0.272-0.169-0.66-0.586c-0.391-0.414-0.885-1.086-1.337-2.005
						c-0.921-1.824-1.456-4.738-0.87-7.816c0.592-3.072,1.902-5.596,2.874-7.349c0.993-1.755,1.688-2.787,1.745-2.755
						c0.068,0.038-0.515,1.139-1.419,2.927c-0.885,1.787-2.115,4.296-2.688,7.272c-0.564,2.972-0.109,5.771,0.693,7.567
						C277.113,118.229,278.071,119.082,277.988,119.151z"/>
				</g>
				<g>
					<path style="fill:#FAFAFA;" d="M300.089,106.36c-0.025,0.026-0.318-0.227-0.828-0.708c-0.515-0.475-1.215-1.21-2.034-2.159
						c-1.642-1.892-3.676-4.733-5.363-8.18c-1.678-3.452-2.663-6.805-3.143-9.264c-0.243-1.229-0.391-2.234-0.448-2.932
						c-0.065-0.697-0.083-1.084-0.048-1.088c0.09-0.011,0.283,1.523,0.855,3.941c0.568,2.417,1.595,5.706,3.251,9.115
						c1.665,3.403,3.624,6.238,5.178,8.174C299.063,105.199,300.153,106.296,300.089,106.36z"/>
				</g>
				<g>
					<path style="fill:#FAFAFA;" d="M302.85,105.664c-0.042,0.044-0.783-0.55-1.809-1.689c-1.026-1.135-2.301-2.849-3.375-4.933
						c-1.069-2.088-1.719-4.123-2.043-5.618c-0.328-1.497-0.379-2.446-0.318-2.454c0.169-0.04,0.694,3.734,2.825,7.834
						C300.219,102.923,302.98,105.55,302.85,105.664z"/>
				</g>
				<g>
					<path style="fill:#FAFAFA;" d="M308.941,104.746c-0.056,0.12-1.578-0.652-2.82-2.296c-1.255-1.635-1.593-3.308-1.463-3.329
						c0.148-0.05,0.688,1.47,1.877,3.014C307.707,103.691,309.028,104.616,308.941,104.746z"/>
				</g>
				<g>
					<path style="fill:#FAFAFA;" d="M315.088,102.392c0.029,0.026-0.576,0.459-1.749,0.385c-0.572-0.046-1.279-0.252-1.905-0.76
						c-0.621-0.498-1.153-1.285-1.317-2.245l0.454,0.104c-0.361,0.524-0.436,1.287-0.265,2.012c0.158,0.682,0.485,1.312,0.788,1.912
						l0.387,0.766l-0.736-0.432c-1.636-0.96-2.727-2.238-3.331-3.214c-0.611-0.984-0.797-1.654-0.751-1.672
						c0.065-0.03,0.352,0.588,1.016,1.491c0.658,0.898,1.749,2.072,3.317,2.958l-0.349,0.334c-0.311-0.596-0.668-1.255-0.848-2.027
						c-0.194-0.826-0.116-1.741,0.36-2.414l0.361-0.51l0.093,0.614c0.125,0.825,0.569,1.532,1.098,1.993
						c0.531,0.469,1.146,0.69,1.666,0.775C314.437,102.617,315.068,102.313,315.088,102.392z"/>
				</g>
				<g>
					<path style="fill:#FAFAFA;" d="M321.657,86.795c0.006,0.017-0.139,0.083-0.423,0.195c-0.287,0.1-0.698,0.295-1.26,0.44
						c-1.105,0.353-2.764,0.696-4.839,0.835c-4.148,0.308-9.967-0.578-15.8-3.075c-5.842-2.5-10.507-5.962-13.584-8.716
						c-1.543-1.382-2.718-2.579-3.492-3.439c-0.395-0.422-0.677-0.773-0.874-1.005c-0.194-0.235-0.289-0.364-0.275-0.376
						c0.03-0.027,0.477,0.429,1.296,1.241c0.816,0.814,2.023,1.965,3.587,3.302c3.119,2.666,7.773,6.045,13.546,8.515
						c5.767,2.467,11.484,3.396,15.577,3.186C319.233,87.733,321.627,86.666,321.657,86.795z"/>
				</g>
				<g>
					<path style="fill:#FAFAFA;" d="M322.344,85.257c0.006,0.017-0.139,0.083-0.423,0.195c-0.287,0.1-0.698,0.295-1.26,0.44
						c-1.105,0.353-2.764,0.696-4.839,0.835c-4.148,0.308-9.967-0.578-15.8-3.075c-5.842-2.5-10.507-5.962-13.584-8.716
						c-1.543-1.382-2.718-2.579-3.492-3.439c-0.396-0.422-0.677-0.773-0.874-1.005c-0.194-0.235-0.289-0.364-0.275-0.376
						c0.03-0.027,0.477,0.43,1.296,1.241c0.816,0.814,2.023,1.965,3.588,3.302c3.119,2.666,7.773,6.045,13.546,8.515
						c5.766,2.467,11.484,3.396,15.577,3.186C319.919,86.195,322.314,85.128,322.344,85.257z"/>
				</g>
			</g>
			<g>
				<g>
					<g>
						<g>
							<g>
								<g>
									<polygon style="fill:#FF725E;" points="349.248,435.02 351.903,475.984 329.831,477.858 327.086,436.821 									"/>
								</g>
							</g>
						</g>
						<g>
							<g>
								<g>
									<g>
										<path style="fill:#263238;" d="M340.9,475.365c-0.185,0.01-0.804-8.957-1.382-20.024
											c-0.579-11.071-0.898-20.051-0.713-20.061c0.185-0.009,0.803,8.955,1.382,20.026
											C340.766,466.373,341.085,475.355,340.9,475.365z"/>
									</g>
								</g>
							</g>
						</g>
						<g>
							<g>
								<g>
									<g>
										<path style="fill:#263238;" d="M328.954,464.743c-0.035-0.023,0.134-0.361,0.511-0.93
											c0.377-0.568,0.983-1.354,1.843-2.227c0.861-0.869,1.99-1.824,3.425-2.612c1.419-0.799,3.173-1.408,5.08-1.506
											c3.824-0.226,7.153,1.451,8.849,3.222c0.878,0.871,1.437,1.706,1.764,2.306c0.322,0.605,0.449,0.961,0.413,0.979
											c-0.117,0.074-0.737-1.341-2.501-2.94c-1.71-1.607-4.863-3.109-8.492-2.898c-3.617,0.199-6.487,2.207-8.209,3.791
											C329.878,463.549,329.052,464.815,328.954,464.743z"/>
									</g>
								</g>
							</g>
						</g>
						<g>
							<g>
								<g>
									<polygon points="327.867,448.501 328.17,453.014 350.286,451.035 350.065,447.636 									"/>
								</g>
							</g>
						</g>
					</g>
					<g>
						<g>
							<g>
								<g>
									<g>
										<g>
											<g>
												<g>
													<g>
														<g>
															<g>
																<g>
																	<g>
																		<g>
																			<g>
																				<path style="fill:#FF725E;" d="M284.169,435.7l1.028,26.147c0,0-26.232,9.826-26.513,14.676l50.769-0.172
																					l0.07-40.806L284.169,435.7z"/>
																			</g>
																		</g>
																	</g>
																</g>
															</g>
														</g>
													</g>
												</g>
											</g>
										</g>
									</g>
								</g>
							</g>
							<g>
								<g>
									<g>
										<g>
											<g>
												<g>
													<g>
														<g>
															<g>
																<g>
																	<g>
																		<g>
																			<g>
																				<g>
																					<path style="fill:#E0E0E0;" d="M300.888,459.594c0.983,0.265,1.666,1.368,1.442,2.361
																						c-0.225,0.994-1.34,1.698-2.328,1.449c-0.988-0.248-1.848-1.546-1.514-2.508
																						c0.334-0.962,1.689-1.717,2.589-1.239"/>
																				</g>
																			</g>
																		</g>
																	</g>
																</g>
															</g>
														</g>
													</g>
												</g>
											</g>
										</g>
									</g>
								</g>
							</g>
							<g>
								<g>
									<g>
										<g>
											<g>
												<g>
													<g>
														<g>
															<g>
																<g>
																	<g>
																		<g>
																			<g>
																				<path style="fill:#E0E0E0;" d="M309.454,476.351v-4.24l-48.773,1.829c0,0-2.257,0.991-1.996,2.582
																					L309.454,476.351z"/>
																			</g>
																		</g>
																	</g>
																</g>
															</g>
														</g>
													</g>
												</g>
											</g>
										</g>
									</g>
								</g>
							</g>
							<g>
								<g>
									<g>
										<g>
											<g>
												<g>
													<g>
														<g>
															<g>
																<g>
																	<g>
																		<g>
																			<g>
																				<g>
																					<path style="fill:#263238;" d="M284.374,461.591c0.009,0.248,1.249,0.356,2.471,1.149
																						c1.243,0.761,1.876,1.833,2.104,1.734c0.228-0.049-0.146-1.53-1.643-2.464
																						C285.817,461.063,284.319,461.364,284.374,461.591z"/>
																				</g>
																			</g>
																		</g>
																	</g>
																</g>
															</g>
														</g>
													</g>
												</g>
											</g>
										</g>
									</g>
								</g>
							</g>
							<g>
								<g>
									<g>
										<g>
											<g>
												<g>
													<g>
														<g>
															<g>
																<g>
																	<g>
																		<g>
																			<g>
																				<g>
																					<path style="fill:#263238;" d="M279.056,463.812c-0.056,0.24,1.019,0.658,1.865,1.704
																						c0.876,1.021,1.093,2.154,1.339,2.142c0.233,0.038,0.4-1.414-0.677-2.694
																						C280.519,463.674,279.061,463.575,279.056,463.812z"/>
																				</g>
																			</g>
																		</g>
																	</g>
																</g>
															</g>
														</g>
													</g>
												</g>
											</g>
										</g>
									</g>
								</g>
							</g>
							<g>
								<g>
									<g>
										<g>
											<g>
												<g>
													<g>
														<g>
															<g>
																<g>
																	<g>
																		<g>
																			<g>
																				<g>
																					<path style="fill:#263238;" d="M276.053,470.195c0.225,0.052,0.566-1.188-0.075-2.543
																						c-0.632-1.361-1.802-1.892-1.907-1.685c-0.139,0.204,0.616,0.93,1.125,2.051
																						C275.732,469.126,275.807,470.171,276.053,470.195z"/>
																				</g>
																			</g>
																		</g>
																	</g>
																</g>
															</g>
														</g>
													</g>
												</g>
											</g>
										</g>
									</g>
								</g>
							</g>
							<g>
								<g>
									<g>
										<g>
											<g>
												<g>
													<g>
														<g>
															<g>
																<g>
																	<g>
																		<g>
																			<g>
																				<g>
																					<path style="fill:#263238;" d="M284.801,455.606c0.104,0.226,1.241-0.12,2.642-0.03
																						c1.403,0.062,2.495,0.529,2.624,0.315c0.143-0.18-0.925-1.094-2.577-1.177
																						C285.838,454.619,284.678,455.412,284.801,455.606z"/>
																				</g>
																			</g>
																		</g>
																	</g>
																</g>
															</g>
														</g>
													</g>
												</g>
											</g>
										</g>
									</g>
								</g>
							</g>
						</g>
						<g>
							<g>
								<g>
									<g>
										<g>
											<g>
												<g>
													<g>
														<g>
															<path style="fill:#263238;" d="M316.391,243.453l-0.074,16.909l0.856,78.925c0,0-2.805,36.581-0.781,58.642
																c1.758,19.159,0,56.18,0,56.18l-34.229,1.839l-11.229-112.862l-6.87-69.399l1.945-31.318L316.391,243.453z"/>
														</g>
													</g>
												</g>
											</g>
										</g>
									</g>
								</g>
							</g>
						</g>
					</g>
					<g>
						<g>
							<g>
								<g>
									<g>
										<g>
											<g>
												<g>
													<g>
														<g>
															<path style="fill:#263238;" d="M335.177,239.995l7.348,23.596l6.593,74.052c0,0,0.347,38.679,2.371,60.74
																c1.758,19.159,4.496,55.725,4.496,55.725l-34.229,1.839l-10.379-118.433l-16.631-65.911l-1.652-31.607H335.177z"/>
														</g>
													</g>
												</g>
											</g>
										</g>
									</g>
								</g>
							</g>
						</g>
					</g>
					<polygon style="fill:#E0E0E0;" points="329.831,477.858 329.546,473.584 351.644,471.986 351.903,475.984 					"/>
				</g>
				<path style="fill:#FF725E;" d="M262.995,236.727l95.789,40.79l6.644,39.04l13.146,92.529c0,0-28.297,22.718-42.677,18.627
					c0,0-19.844-8.306-26.457-6.539c-6.613,1.767-16.673,10.237-25.474,11.456c-8.801,1.219-12.203-4.917-17.784-6.28
					c-5.582-1.363-13.236-6.658-13.236-6.658L262.995,236.727z"/>
				<path style="fill:#FF725E;" d="M259.023,309.041c0.164-4.595,1.303-23.726,2.619-59.754c1.012-27.702,5.877-52.797,5.877-52.797
					l7.009-73.722l8.539-4.343l4.265-5.565c0,0,15.971-0.74,19.012-0.798c3.532-0.068,8.569-0.019,8.569-0.019l2.997,6.295
					c5.081,2.606,19.717,12.827,19.717,12.827s7.621,11.601,8.589,17.407c0.968,5.806,5.484,86.127,5.484,86.127l14.855,89.796
					L259.023,309.041"/>
				<g>
					<path style="fill:#263238;" d="M317.4,117.705c-0.003,0.036-0.47,0.031-1.311-0.009c-0.944-0.046-2.136-0.104-3.557-0.172
						c-3.003-0.138-7.153-0.261-11.737-0.199c-4.585,0.066-8.731,0.305-11.729,0.528c-1.419,0.109-2.609,0.2-3.551,0.272
						c-0.839,0.064-1.305,0.082-1.31,0.046c-0.004-0.036,0.454-0.122,1.287-0.248c0.833-0.129,2.043-0.28,3.541-0.438
						c2.996-0.317,7.153-0.615,11.754-0.682c4.599-0.063,8.763,0.119,11.767,0.352c1.502,0.116,2.716,0.233,3.552,0.338
						C316.943,117.596,317.403,117.67,317.4,117.705z"/>
				</g>
				<path style="fill:#FF725E;" d="M277.473,121.442c0,0-15.674,6.618-21.877,13.387c-5.235,5.712-10.352,36.359-10.352,36.359
					l-4.369,19.983l-31.391,5.1c0,0.689-0.256,21.446-0.256,21.446s28.8,9.179,41.102,8.26
					c12.302-0.918,20.423-12.967,21.583-20.887c1.227-8.375,4.776-43.764,4.776-43.764L277.473,121.442z"/>
				<g>
					<path style="fill:#263238;" d="M280.09,157.576c0.018,0.003-0.003,0.27-0.059,0.775c-0.067,0.554-0.157,1.289-0.269,2.209
						c-0.263,1.97-0.632,4.727-1.084,8.11c-0.944,6.847-2.257,16.292-3.785,26.733c-0.917,5.227-2.499,10.032-4.159,14.298
						c-0.422,1.066-0.85,2.094-1.314,3.083c-0.456,1-1.028,1.897-1.587,2.755c-1.16,1.689-2.426,3.126-3.678,4.33
						c-2.504,2.422-4.983,3.863-6.788,4.573c-1.813,0.715-2.902,0.781-2.902,0.781c-0.016-0.066,1.06-0.205,2.824-0.967
						c1.758-0.758,4.171-2.226,6.61-4.65c1.219-1.205,2.451-2.637,3.576-4.308c1.144-1.662,1.99-3.642,2.813-5.772
						c1.626-4.247,3.187-9.041,4.092-14.208c1.533-10.402,2.92-19.819,3.934-26.7c0.521-3.374,0.945-6.122,1.248-8.087
						c0.152-0.914,0.274-1.644,0.365-2.195C280.017,157.835,280.072,157.573,280.09,157.576z"/>
				</g>
				<polygon style="opacity:0.3;" points="356.44,264.006 332.72,174.139 332.801,176.449 336.421,280.349 358.783,277.517 				"/>
				<path style="fill:#FFBE9D;" d="M202.127,190.094c0,0-2.537,4.529-2.711,7.174c-0.17,2.589,1.144,11.611,1.144,11.611
					l8.924,5.292v-10.674L202.127,190.094z"/>
				<g>
					<path style="fill:#E0E0E0;" d="M317.911,118.338c0,0,10.973,11.174,13.664,41.221c2.691,30.047,6.503,108.079,6.503,108.079
						l28.477-2.691c0,0-9.642-93.504-13.902-105.837c-4.26-12.333-9.633-27.805-15.015-30.496
						C332.256,125.923,317.911,118.338,317.911,118.338z"/>
					<g>
						<path style="fill:#263238;" d="M365.32,254.122c0.001,0.036-0.39,0.079-1.097,0.125c-0.707,0.048-1.731,0.092-2.997,0.135
							c-2.531,0.083-6.029,0.139-9.892,0.145c-3.864,0.006-7.362-0.037-9.894-0.113c-2.53-0.074-4.101-0.183-4.092-0.293
							c0.022-0.025,0.381-0.027,1.1-0.042c0.821-0.009,1.821-0.02,2.996-0.033c2.656-0.011,6.091-0.025,9.889-0.04
							c3.798,0.003,7.232,0.005,9.888,0.007c1.176,0.012,2.177,0.022,2.998,0.03C364.927,254.06,365.319,254.086,365.32,254.122z"/>
					</g>
					<g>
						<path style="fill:#263238;" d="M363.853,238.483c0.001,0.036-0.38,0.079-1.069,0.125c-0.69,0.048-1.688,0.092-2.923,0.135
							c-2.468,0.083-5.879,0.139-9.646,0.145c-3.768,0.006-7.18-0.037-9.649-0.113c-2.467-0.074-4-0.183-3.99-0.293
							c0.022-0.025,0.371-0.027,1.072-0.042c0.804-0.009,1.779-0.02,2.922-0.033c2.596-0.011,5.942-0.025,9.644-0.04
							c3.7,0.003,7.046,0.005,9.642,0.007c1.143,0.012,2.118,0.022,2.923,0.03C363.47,238.421,363.852,238.447,363.853,238.483z"/>
					</g>
					<g>
						<path style="fill:#263238;" d="M365.175,251.119c0,0.144-6.162,0.26-13.762,0.26c-7.603,0-13.763-0.117-13.763-0.26
							c0-0.144,6.161-0.26,13.763-0.26C359.013,250.858,365.175,250.975,365.175,251.119z"/>
					</g>
					<g>
						<path style="fill:#263238;" d="M363.993,248.108c0,0.144-5.946,0.26-13.278,0.26c-7.335,0-13.28-0.116-13.28-0.26
							c0-0.144,5.944-0.26,13.28-0.26C358.047,247.848,363.993,247.964,363.993,248.108z"/>
					</g>
					<g>
						<path style="fill:#263238;" d="M362.214,228.397c0,0.144-5.781,0.26-12.911,0.26c-7.132,0-12.912-0.117-12.912-0.26
							c0-0.144,5.78-0.26,12.912-0.26C356.433,228.137,362.214,228.253,362.214,228.397z"/>
					</g>
					<g>
						<path style="fill:#263238;" d="M362.214,226.387c0,0.144-5.781,0.26-12.911,0.26c-7.132,0-12.912-0.117-12.912-0.26
							s5.78-0.26,12.912-0.26C356.433,226.126,362.214,226.243,362.214,226.387z"/>
					</g>
					<g>
						<path style="fill:#263238;" d="M362.214,224.194c0,0.144-5.781,0.26-12.911,0.26c-7.132,0-12.912-0.117-12.912-0.26
							c0-0.144,5.78-0.26,12.912-0.26C356.433,223.934,362.214,224.05,362.214,224.194z"/>
					</g>
					<g>
						<path style="fill:#263238;" d="M363.993,241.112c0.032,0.022-0.325,0.607-0.993,1.64c-0.728,1.101-1.695,2.562-2.859,4.322
							l-0.137,0.207l-0.169-0.188c-1.767-1.966-3.888-4.327-6.227-6.928l0.375,0.004c-1.051,1.139-2.158,2.339-3.297,3.573
							c-0.977,1.054-1.932,2.083-2.851,3.073l-0.201,0.217l-0.184-0.229c-1.99-2.47-3.816-4.736-5.378-6.675l0.331-0.012
							c-1.481,2.048-2.713,3.753-3.634,5.026c-0.409,0.545-0.749,0.997-1.027,1.367c-0.241,0.31-0.378,0.468-0.395,0.456
							c-0.017-0.012,0.085-0.194,0.294-0.527c0.253-0.388,0.562-0.861,0.935-1.432c0.883-1.299,2.066-3.039,3.486-5.129l0.154-0.227
							l0.177,0.215c1.584,1.922,3.435,4.168,5.452,6.615l-0.385-0.012c0.917-0.993,1.869-2.024,2.844-3.08
							c1.142-1.231,2.253-2.428,3.307-3.563l0.191-0.206l0.184,0.21c2.305,2.632,4.397,5.019,6.138,7.007l-0.305,0.019
							c1.222-1.721,2.237-3.149,3.001-4.225C363.543,241.634,363.961,241.09,363.993,241.112z"/>
					</g>
					<g>
						<path style="fill:#263238;" d="M362.425,230.667c0.032,0.022-0.319,0.607-0.976,1.639c-0.717,1.101-1.669,2.562-2.815,4.322
							l-0.137,0.211l-0.17-0.192c-1.741-1.967-3.831-4.327-6.134-6.929l0.378,0.004c-1.036,1.14-2.127,2.34-3.249,3.575
							c-0.962,1.053-1.901,2.081-2.806,3.071l-0.203,0.222l-0.185-0.234c-1.959-2.469-3.758-4.735-5.297-6.675l0.333-0.012
							c-1.458,2.047-2.673,3.752-3.58,5.026c-0.404,0.545-0.738,0.997-1.013,1.367c-0.238,0.31-0.373,0.468-0.39,0.456
							c-0.017-0.012,0.083-0.194,0.289-0.526c0.249-0.388,0.553-0.861,0.92-1.431c0.87-1.3,2.034-3.039,3.432-5.128l0.155-0.232
							l0.178,0.22c1.56,1.922,3.384,4.168,5.37,6.615l-0.388-0.012c0.902-0.992,1.839-2.023,2.798-3.078
							c1.126-1.232,2.22-2.429,3.259-3.566l0.193-0.211l0.185,0.215c2.27,2.631,4.329,5.018,6.045,7.007l-0.307,0.019
							c1.204-1.72,2.204-3.148,2.957-4.225C361.981,231.189,362.393,230.645,362.425,230.667z"/>
					</g>
				</g>
				<g>
					<path style="fill:#263238;" d="M280.202,333.032c0.143,0.01-1.173,19.963-2.941,44.559
						c-1.768,24.605-3.317,44.536-3.461,44.526c-0.143-0.01,1.173-19.958,2.941-44.563
						C278.509,352.957,280.059,333.021,280.202,333.032z"/>
				</g>
				<g>
					<path style="fill:#263238;" d="M313.001,300.521c0.144,0,0.26,23.068,0.26,51.517c0,28.459-0.117,51.522-0.26,51.522
						c-0.144,0-0.26-23.063-0.26-51.522C312.74,323.589,312.857,300.521,313.001,300.521z"/>
				</g>
				<g>
					<path style="fill:#263238;" d="M322.045,414.076c-0.144,0.006-0.904-16.092-1.698-35.95
						c-0.794-19.865-1.321-35.968-1.177-35.974c0.144-0.006,0.904,16.088,1.698,35.953
						C321.661,397.964,322.188,414.071,322.045,414.076z"/>
				</g>
				<g style="opacity:0.3;">
					<path d="M262.755,231.857c5.829-5.219,9.849-14.24,11.637-22.332c1.789-8.092,1.869-16.527,1.609-24.856
						c0,0-2.735,27.743-11.939,35.044L262.755,231.857z"/>
				</g>
				<path style="opacity:0.3;" d="M314.574,303.901l-1.512,108.871c-0.04,2.894,2.07,5.38,4.934,5.791
					c1.202,0.172,1.95-0.395,2.611-0.425c2.42-0.11,1.437-11.266,1.437-11.266L314.574,303.901z"/>
			</g>
		</g>
		<g>
			<g style="opacity:0.3;">
				<path d="M279.395,159.143c-1.741,0.114-3.545,0.247-5.073,1.088c-1.379,0.759-2.395,2.02-3.435,3.201
					c-5.099,5.79-11.498,10.254-17.314,15.324c-8.638,7.531-16.042,16.474-21.827,26.366l-2.217,10.025
					c5.373-0.026,10.732-1.518,15.345-4.273c4.755-2.839,8.626-6.914,12.432-10.936c7.52-7.948,15.04-15.895,22.56-23.843
					c1.721-1.819,3.553-3.905,3.533-6.409c-0.009-1.086-0.364-2.247,0.134-3.213c0.337-0.653,0.997-1.065,1.626-1.444
					c3.886-2.344,7.772-4.688,11.658-7.031C291.009,158.38,285.202,158.762,279.395,159.143z"/>
			</g>
			<g>
				<g>
					<g>
						<path style="fill:#C8877F;" d="M270.667,154.294c0,0,1.489-7.95,3.452-9.664l12.601-8.614c0,0,1.717-0.374,0.756,2.344
							c-0.881,2.491-4.038,4.357-4.038,4.357l-2.069,3.01l3.224-0.429l8.9-5.217c0,0,6.317-3.898,6.508-2.547
							c0.191,1.351-1.168,3.016-3.894,4.699c-2.726,1.682-6.184,3.816-6.184,3.816s-1.023,0.723,1.316,0.198
							c2.339-0.525,9.754-5.469,10.941-5.926c1.187-0.457,3.641-2.431,4.718-0.984c1.077,1.447-2.611,3.356-2.611,3.356
							l-10.842,7.425c0,0,5.023-2.249,5.903-2.608c0.88-0.359,3.34-1.902,4.901-2.498c1.56-0.596,2.776-0.456,3.239,0.202
							c0.833,1.186-0.167,2.044-0.167,2.044l-10.065,5.467c0,0-4.765,2.298-4.938,2.588c-0.172,0.29,2.893,0.051,2.893,0.051
							l3.642-1.35c0,0,4.604-2.545,5.635-1.62c1.03,0.925,0.289,1.658,0.289,1.658l-8.466,4.582l-10.657,4.006l-8.586,2.452
							l-3.866,2.162c-0.269,0.024-5.201-8.674-5.81-12.205L270.667,154.294z"/>
					</g>
				</g>
			</g>
			<path style="fill:#455A64;" d="M223.936,125.329c-2.286,0.381-18.751,8.408-24.38,14.857c-6.281,7.195-7.922,20.962-2.015,38.651
				c4.047,12.12,16.804,38.17,27.725,38.21c12.473,0.046,56.114-48.538,56.114-48.538l-14.883-21.129l-33.799,30.138
				L223.936,125.329z"/>
			<g>
				<path style="fill:#263238;" d="M266.496,147.381c0.009,0.016-0.198,0.19-0.595,0.503c-0.393,0.32-0.957,0.821-1.691,1.45
					c-1.49,1.323-3.577,3.174-6.137,5.446c-5.208,4.645-12.334,11.001-20.207,18.023c-1.592,1.393-3.153,2.759-4.668,4.084
					c-1.545,1.31-2.958,2.597-4.534,3.73l-0.254,0.182l-0.104-0.319c-2.365-7.237-4.399-13.463-5.862-17.939
					c-0.692-2.179-1.249-3.93-1.649-5.191c-0.173-0.572-0.312-1.032-0.42-1.391c-0.091-0.317-0.132-0.485-0.118-0.489
					c0.014-0.005,0.081,0.154,0.198,0.463c0.128,0.352,0.292,0.804,0.496,1.366c0.433,1.25,1.035,2.985,1.785,5.145
					c1.507,4.461,3.603,10.667,6.039,17.88l-0.358-0.136c1.447-1.054,2.927-2.393,4.444-3.69c1.512-1.326,3.071-2.693,4.66-4.086
					c7.922-7,15.073-13.366,20.308-17.908c2.613-2.276,4.753-4.091,6.249-5.324c0.757-0.607,1.341-1.082,1.76-1.379
					C266.262,147.509,266.487,147.365,266.496,147.381z"/>
			</g>
			<g>
				<path style="fill:#263238;" d="M218.634,145.676c-0.147,0.081-1.473-2.719-4.097-5.404c-2.598-2.713-5.352-4.129-5.266-4.273
					c0.028-0.056,0.752,0.223,1.827,0.864c1.074,0.638,2.48,1.672,3.814,3.048c1.33,1.378,2.318,2.817,2.92,3.911
					C218.436,144.917,218.691,145.65,218.634,145.676z"/>
			</g>
			<g>
				<path style="fill:#263238;" d="M227.521,194.73c-0.045,0.028-0.561-0.697-1.055-2.037c-0.497-1.333-0.888-3.31-0.726-5.493
					c0.17-2.184,0.855-4.079,1.547-5.322c0.69-1.25,1.309-1.889,1.35-1.854c0.073,0.053-0.434,0.763-1.021,2.02
					c-0.59,1.252-1.192,3.09-1.357,5.196c-0.155,2.105,0.163,4.014,0.557,5.34C227.207,193.91,227.601,194.689,227.521,194.73z"/>
			</g>
		</g>
		<g>
			<path style="fill:#455A64;" d="M354.064,168.304c0,0,5.764-10.763,5.539-17.266c-0.224-6.503-3.547-10.457-8.521-13.23
				c-4.974-2.772-7.281,3.364-7.281,3.364L354.064,168.304z"/>
			<path style="fill:#C8877F;" d="M348.99,139.861l-1.001-1.663c-1.88-3.162-4.769-5.714-8.139-7.189
				c-0.572-0.25-1.187-0.474-1.806-0.397c-0.619,0.077-1.232,0.55-1.261,1.174c-0.038,0.808,0.806,1.323,1.448,1.816
				c1.355,1.04,2.913,2.99,3.616,4.106c-1.914,0.026-5.133-0.565-7.047-0.539c-0.507,0.007-1.901-0.165-2.066,0.95
				c-0.113,0.765,0.549,2.133,1.24,2.479c2.536,1.27,9.545,1.859,8.967,3.141c0.331,0.909-4.447,0.654-6.205,0.761
				c-0.536,0.032-1.093,0.071-1.558,0.339c-0.465,0.268-0.801,0.841-0.621,1.346c0.148,0.414,0.541,0.752,0.972,0.839
				c3.486,0.71,10.47,1.136,9.47,2.501c-1.666,0.198-2.595,0.907-4.685,1.712c-0.632,0.243-1.136,0.863-1.239,1.532
				c-0.169,1.096,1.046,1.966,2.154,1.997c1.108,0.031,2.155-0.467,3.241-0.69c1.086-0.224,2.416-0.064,2.985,0.887
				c0.513,0.857,0.171,1.987-0.416,2.795c-0.587,0.808-1.395,1.44-1.95,2.27c-0.555,0.83-0.804,2.006-0.194,2.796
				c0.656,0.849,2.018,0.824,2.917,0.238c0.898-0.586,1.444-1.569,1.954-2.513c0.866-1.602,1.733-3.205,2.599-4.807
				c1.093-2.021,2.206-4.105,2.467-6.388C355.285,145.376,352.746,141.249,348.99,139.861z"/>
		</g>
	</g>
</g>
</svg>
