<?xml version="1.0" standalone="no"?>
<svg xmlns="http://www.w3.org/2000/svg" width="500" height="500"><defs><clipPath id="clip-path-dot-color"><circle cx="34" cy="154" r="6" transform="rotate(0,34,154)"/><circle cx="34" cy="178" r="6" transform="rotate(0,34,178)"/><circle cx="34" cy="214" r="6" transform="rotate(0,34,214)"/><circle cx="34" cy="262" r="6" transform="rotate(0,34,262)"/><circle cx="34" cy="298" r="6" transform="rotate(0,34,298)"/><circle cx="34" cy="322" r="6" transform="rotate(0,34,322)"/><circle cx="34" cy="346" r="6" transform="rotate(0,34,346)"/><circle cx="34" cy="358" r="6" transform="rotate(0,34,358)"/><circle cx="46" cy="142" r="6" transform="rotate(0,46,142)"/><circle cx="46" cy="166" r="6" transform="rotate(0,46,166)"/><circle cx="46" cy="178" r="6" transform="rotate(0,46,178)"/><circle cx="46" cy="214" r="6" transform="rotate(0,46,214)"/><circle cx="46" cy="274" r="6" transform="rotate(0,46,274)"/><circle cx="46" cy="286" r="6" transform="rotate(0,46,286)"/><circle cx="46" cy="334" r="6" transform="rotate(0,46,334)"/><circle cx="46" cy="346" r="6" transform="rotate(0,46,346)"/><circle cx="46" cy="370" r="6" transform="rotate(0,46,370)"/><circle cx="58" cy="130" r="6" transform="rotate(0,58,130)"/><circle cx="58" cy="166" r="6" transform="rotate(0,58,166)"/><circle cx="58" cy="178" r="6" transform="rotate(0,58,178)"/><circle cx="58" cy="190" r="6" transform="rotate(0,58,190)"/><circle cx="58" cy="226" r="6" transform="rotate(0,58,226)"/><circle cx="58" cy="238" r="6" transform="rotate(0,58,238)"/><circle cx="58" cy="250" r="6" transform="rotate(0,58,250)"/><circle cx="58" cy="262" r="6" transform="rotate(0,58,262)"/><circle cx="58" cy="274" r="6" transform="rotate(0,58,274)"/><circle cx="58" cy="286" r="6" transform="rotate(0,58,286)"/><circle cx="58" cy="310" r="6" transform="rotate(0,58,310)"/><circle cx="58" cy="346" r="6" transform="rotate(0,58,346)"/><circle cx="58" cy="358" r="6" transform="rotate(0,58,358)"/><circle cx="70" cy="154" r="6" transform="rotate(0,70,154)"/><circle cx="70" cy="190" r="6" transform="rotate(0,70,190)"/><circle cx="70" cy="214" r="6" transform="rotate(0,70,214)"/><circle cx="70" cy="238" r="6" transform="rotate(0,70,238)"/><circle cx="70" cy="262" r="6" transform="rotate(0,70,262)"/><circle cx="70" cy="298" r="6" transform="rotate(0,70,298)"/><circle cx="70" cy="310" r="6" transform="rotate(0,70,310)"/><circle cx="70" cy="322" r="6" transform="rotate(0,70,322)"/><circle cx="70" cy="334" r="6" transform="rotate(0,70,334)"/><circle cx="70" cy="346" r="6" transform="rotate(0,70,346)"/><circle cx="70" cy="370" r="6" transform="rotate(0,70,370)"/><circle cx="82" cy="130" r="6" transform="rotate(0,82,130)"/><circle cx="82" cy="154" r="6" transform="rotate(0,82,154)"/><circle cx="82" cy="178" r="6" transform="rotate(0,82,178)"/><circle cx="82" cy="190" r="6" transform="rotate(0,82,190)"/><circle cx="82" cy="202" r="6" transform="rotate(0,82,202)"/><circle cx="82" cy="226" r="6" transform="rotate(0,82,226)"/><circle cx="82" cy="238" r="6" transform="rotate(0,82,238)"/><circle cx="82" cy="250" r="6" transform="rotate(0,82,250)"/><circle cx="82" cy="274" r="6" transform="rotate(0,82,274)"/><circle cx="82" cy="310" r="6" transform="rotate(0,82,310)"/><circle cx="82" cy="322" r="6" transform="rotate(0,82,322)"/><circle cx="82" cy="334" r="6" transform="rotate(0,82,334)"/><circle cx="82" cy="346" r="6" transform="rotate(0,82,346)"/><circle cx="82" cy="358" r="6" transform="rotate(0,82,358)"/><circle cx="94" cy="130" r="6" transform="rotate(0,94,130)"/><circle cx="94" cy="142" r="6" transform="rotate(0,94,142)"/><circle cx="94" cy="154" r="6" transform="rotate(0,94,154)"/><circle cx="94" cy="166" r="6" transform="rotate(0,94,166)"/><circle cx="94" cy="226" r="6" transform="rotate(0,94,226)"/><circle cx="94" cy="238" r="6" transform="rotate(0,94,238)"/><circle cx="94" cy="274" r="6" transform="rotate(0,94,274)"/><circle cx="94" cy="322" r="6" transform="rotate(0,94,322)"/><circle cx="94" cy="334" r="6" transform="rotate(0,94,334)"/><circle cx="94" cy="346" r="6" transform="rotate(0,94,346)"/><circle cx="94" cy="370" r="6" transform="rotate(0,94,370)"/><circle cx="106" cy="130" r="6" transform="rotate(0,106,130)"/><circle cx="106" cy="154" r="6" transform="rotate(0,106,154)"/><circle cx="106" cy="178" r="6" transform="rotate(0,106,178)"/><circle cx="106" cy="202" r="6" transform="rotate(0,106,202)"/><circle cx="106" cy="226" r="6" transform="rotate(0,106,226)"/><circle cx="106" cy="250" r="6" transform="rotate(0,106,250)"/><circle cx="106" cy="274" r="6" transform="rotate(0,106,274)"/><circle cx="106" cy="298" r="6" transform="rotate(0,106,298)"/><circle cx="106" cy="322" r="6" transform="rotate(0,106,322)"/><circle cx="106" cy="346" r="6" transform="rotate(0,106,346)"/><circle cx="106" cy="370" r="6" transform="rotate(0,106,370)"/><circle cx="118" cy="142" r="6" transform="rotate(0,118,142)"/><circle cx="118" cy="166" r="6" transform="rotate(0,118,166)"/><circle cx="118" cy="178" r="6" transform="rotate(0,118,178)"/><circle cx="118" cy="190" r="6" transform="rotate(0,118,190)"/><circle cx="118" cy="202" r="6" transform="rotate(0,118,202)"/><circle cx="118" cy="214" r="6" transform="rotate(0,118,214)"/><circle cx="118" cy="226" r="6" transform="rotate(0,118,226)"/><circle cx="118" cy="238" r="6" transform="rotate(0,118,238)"/><circle cx="118" cy="250" r="6" transform="rotate(0,118,250)"/><circle cx="118" cy="262" r="6" transform="rotate(0,118,262)"/><circle cx="118" cy="286" r="6" transform="rotate(0,118,286)"/><circle cx="118" cy="310" r="6" transform="rotate(0,118,310)"/><circle cx="118" cy="322" r="6" transform="rotate(0,118,322)"/><circle cx="118" cy="346" r="6" transform="rotate(0,118,346)"/><circle cx="130" cy="46" r="6" transform="rotate(0,130,46)"/><circle cx="130" cy="82" r="6" transform="rotate(0,130,82)"/><circle cx="130" cy="106" r="6" transform="rotate(0,130,106)"/><circle cx="130" cy="130" r="6" transform="rotate(0,130,130)"/><circle cx="130" cy="202" r="6" transform="rotate(0,130,202)"/><circle cx="130" cy="238" r="6" transform="rotate(0,130,238)"/><circle cx="130" cy="262" r="6" transform="rotate(0,130,262)"/><circle cx="130" cy="286" r="6" transform="rotate(0,130,286)"/><circle cx="130" cy="298" r="6" transform="rotate(0,130,298)"/><circle cx="130" cy="322" r="6" transform="rotate(0,130,322)"/><circle cx="130" cy="334" r="6" transform="rotate(0,130,334)"/><circle cx="130" cy="346" r="6" transform="rotate(0,130,346)"/><circle cx="130" cy="358" r="6" transform="rotate(0,130,358)"/><circle cx="130" cy="382" r="6" transform="rotate(0,130,382)"/><circle cx="130" cy="406" r="6" transform="rotate(0,130,406)"/><circle cx="130" cy="418" r="6" transform="rotate(0,130,418)"/><circle cx="130" cy="442" r="6" transform="rotate(0,130,442)"/><circle cx="142" cy="82" r="6" transform="rotate(0,142,82)"/><circle cx="142" cy="118" r="6" transform="rotate(0,142,118)"/><circle cx="142" cy="142" r="6" transform="rotate(0,142,142)"/><circle cx="142" cy="154" r="6" transform="rotate(0,142,154)"/><circle cx="142" cy="166" r="6" transform="rotate(0,142,166)"/><circle cx="142" cy="178" r="6" transform="rotate(0,142,178)"/><circle cx="142" cy="202" r="6" transform="rotate(0,142,202)"/><circle cx="142" cy="214" r="6" transform="rotate(0,142,214)"/><circle cx="142" cy="262" r="6" transform="rotate(0,142,262)"/><circle cx="142" cy="298" r="6" transform="rotate(0,142,298)"/><circle cx="142" cy="310" r="6" transform="rotate(0,142,310)"/><circle cx="142" cy="370" r="6" transform="rotate(0,142,370)"/><circle cx="142" cy="382" r="6" transform="rotate(0,142,382)"/><circle cx="142" cy="406" r="6" transform="rotate(0,142,406)"/><circle cx="142" cy="418" r="6" transform="rotate(0,142,418)"/><circle cx="154" cy="46" r="6" transform="rotate(0,154,46)"/><circle cx="154" cy="58" r="6" transform="rotate(0,154,58)"/><circle cx="154" cy="70" r="6" transform="rotate(0,154,70)"/><circle cx="154" cy="82" r="6" transform="rotate(0,154,82)"/><circle cx="154" cy="106" r="6" transform="rotate(0,154,106)"/><circle cx="154" cy="130" r="6" transform="rotate(0,154,130)"/><circle cx="154" cy="142" r="6" transform="rotate(0,154,142)"/><circle cx="154" cy="178" r="6" transform="rotate(0,154,178)"/><circle cx="154" cy="202" r="6" transform="rotate(0,154,202)"/><circle cx="154" cy="214" r="6" transform="rotate(0,154,214)"/><circle cx="154" cy="226" r="6" transform="rotate(0,154,226)"/><circle cx="154" cy="310" r="6" transform="rotate(0,154,310)"/><circle cx="154" cy="322" r="6" transform="rotate(0,154,322)"/><circle cx="154" cy="334" r="6" transform="rotate(0,154,334)"/><circle cx="154" cy="346" r="6" transform="rotate(0,154,346)"/><circle cx="154" cy="370" r="6" transform="rotate(0,154,370)"/><circle cx="154" cy="382" r="6" transform="rotate(0,154,382)"/><circle cx="154" cy="406" r="6" transform="rotate(0,154,406)"/><circle cx="154" cy="430" r="6" transform="rotate(0,154,430)"/><circle cx="166" cy="34" r="6" transform="rotate(0,166,34)"/><circle cx="166" cy="70" r="6" transform="rotate(0,166,70)"/><circle cx="166" cy="82" r="6" transform="rotate(0,166,82)"/><circle cx="166" cy="94" r="6" transform="rotate(0,166,94)"/><circle cx="166" cy="118" r="6" transform="rotate(0,166,118)"/><circle cx="166" cy="130" r="6" transform="rotate(0,166,130)"/><circle cx="166" cy="166" r="6" transform="rotate(0,166,166)"/><circle cx="166" cy="214" r="6" transform="rotate(0,166,214)"/><circle cx="166" cy="226" r="6" transform="rotate(0,166,226)"/><circle cx="166" cy="238" r="6" transform="rotate(0,166,238)"/><circle cx="166" cy="250" r="6" transform="rotate(0,166,250)"/><circle cx="166" cy="274" r="6" transform="rotate(0,166,274)"/><circle cx="166" cy="286" r="6" transform="rotate(0,166,286)"/><circle cx="166" cy="298" r="6" transform="rotate(0,166,298)"/><circle cx="166" cy="322" r="6" transform="rotate(0,166,322)"/><circle cx="166" cy="346" r="6" transform="rotate(0,166,346)"/><circle cx="166" cy="382" r="6" transform="rotate(0,166,382)"/><circle cx="166" cy="430" r="6" transform="rotate(0,166,430)"/><circle cx="166" cy="442" r="6" transform="rotate(0,166,442)"/><circle cx="166" cy="466" r="6" transform="rotate(0,166,466)"/><circle cx="178" cy="46" r="6" transform="rotate(0,178,46)"/><circle cx="178" cy="58" r="6" transform="rotate(0,178,58)"/><circle cx="178" cy="106" r="6" transform="rotate(0,178,106)"/><circle cx="178" cy="130" r="6" transform="rotate(0,178,130)"/><circle cx="178" cy="178" r="6" transform="rotate(0,178,178)"/><circle cx="178" cy="214" r="6" transform="rotate(0,178,214)"/><circle cx="178" cy="226" r="6" transform="rotate(0,178,226)"/><circle cx="178" cy="238" r="6" transform="rotate(0,178,238)"/><circle cx="178" cy="250" r="6" transform="rotate(0,178,250)"/><circle cx="178" cy="262" r="6" transform="rotate(0,178,262)"/><circle cx="178" cy="286" r="6" transform="rotate(0,178,286)"/><circle cx="178" cy="310" r="6" transform="rotate(0,178,310)"/><circle cx="178" cy="358" r="6" transform="rotate(0,178,358)"/><circle cx="178" cy="382" r="6" transform="rotate(0,178,382)"/><circle cx="178" cy="394" r="6" transform="rotate(0,178,394)"/><circle cx="178" cy="406" r="6" transform="rotate(0,178,406)"/><circle cx="178" cy="430" r="6" transform="rotate(0,178,430)"/><circle cx="178" cy="442" r="6" transform="rotate(0,178,442)"/><circle cx="178" cy="454" r="6" transform="rotate(0,178,454)"/><circle cx="190" cy="70" r="6" transform="rotate(0,190,70)"/><circle cx="190" cy="130" r="6" transform="rotate(0,190,130)"/><circle cx="190" cy="142" r="6" transform="rotate(0,190,142)"/><circle cx="190" cy="154" r="6" transform="rotate(0,190,154)"/><circle cx="190" cy="166" r="6" transform="rotate(0,190,166)"/><circle cx="190" cy="190" r="6" transform="rotate(0,190,190)"/><circle cx="190" cy="214" r="6" transform="rotate(0,190,214)"/><circle cx="190" cy="226" r="6" transform="rotate(0,190,226)"/><circle cx="190" cy="238" r="6" transform="rotate(0,190,238)"/><circle cx="190" cy="274" r="6" transform="rotate(0,190,274)"/><circle cx="190" cy="286" r="6" transform="rotate(0,190,286)"/><circle cx="190" cy="298" r="6" transform="rotate(0,190,298)"/><circle cx="190" cy="310" r="6" transform="rotate(0,190,310)"/><circle cx="190" cy="346" r="6" transform="rotate(0,190,346)"/><circle cx="190" cy="358" r="6" transform="rotate(0,190,358)"/><circle cx="190" cy="370" r="6" transform="rotate(0,190,370)"/><circle cx="190" cy="382" r="6" transform="rotate(0,190,382)"/><circle cx="190" cy="418" r="6" transform="rotate(0,190,418)"/><circle cx="190" cy="442" r="6" transform="rotate(0,190,442)"/><circle cx="190" cy="454" r="6" transform="rotate(0,190,454)"/><circle cx="202" cy="34" r="6" transform="rotate(0,202,34)"/><circle cx="202" cy="46" r="6" transform="rotate(0,202,46)"/><circle cx="202" cy="82" r="6" transform="rotate(0,202,82)"/><circle cx="202" cy="106" r="6" transform="rotate(0,202,106)"/><circle cx="202" cy="166" r="6" transform="rotate(0,202,166)"/><circle cx="202" cy="202" r="6" transform="rotate(0,202,202)"/><circle cx="202" cy="238" r="6" transform="rotate(0,202,238)"/><circle cx="202" cy="262" r="6" transform="rotate(0,202,262)"/><circle cx="202" cy="274" r="6" transform="rotate(0,202,274)"/><circle cx="202" cy="310" r="6" transform="rotate(0,202,310)"/><circle cx="202" cy="334" r="6" transform="rotate(0,202,334)"/><circle cx="202" cy="346" r="6" transform="rotate(0,202,346)"/><circle cx="202" cy="358" r="6" transform="rotate(0,202,358)"/><circle cx="202" cy="370" r="6" transform="rotate(0,202,370)"/><circle cx="202" cy="394" r="6" transform="rotate(0,202,394)"/><circle cx="202" cy="406" r="6" transform="rotate(0,202,406)"/><circle cx="202" cy="418" r="6" transform="rotate(0,202,418)"/><circle cx="202" cy="430" r="6" transform="rotate(0,202,430)"/><circle cx="202" cy="442" r="6" transform="rotate(0,202,442)"/><circle cx="214" cy="34" r="6" transform="rotate(0,214,34)"/><circle cx="214" cy="46" r="6" transform="rotate(0,214,46)"/><circle cx="214" cy="118" r="6" transform="rotate(0,214,118)"/><circle cx="214" cy="130" r="6" transform="rotate(0,214,130)"/><circle cx="214" cy="142" r="6" transform="rotate(0,214,142)"/><circle cx="214" cy="154" r="6" transform="rotate(0,214,154)"/><circle cx="214" cy="226" r="6" transform="rotate(0,214,226)"/><circle cx="214" cy="250" r="6" transform="rotate(0,214,250)"/><circle cx="214" cy="262" r="6" transform="rotate(0,214,262)"/><circle cx="214" cy="274" r="6" transform="rotate(0,214,274)"/><circle cx="214" cy="298" r="6" transform="rotate(0,214,298)"/><circle cx="214" cy="310" r="6" transform="rotate(0,214,310)"/><circle cx="214" cy="346" r="6" transform="rotate(0,214,346)"/><circle cx="214" cy="382" r="6" transform="rotate(0,214,382)"/><circle cx="214" cy="394" r="6" transform="rotate(0,214,394)"/><circle cx="214" cy="442" r="6" transform="rotate(0,214,442)"/><circle cx="214" cy="454" r="6" transform="rotate(0,214,454)"/><circle cx="226" cy="58" r="6" transform="rotate(0,226,58)"/><circle cx="226" cy="70" r="6" transform="rotate(0,226,70)"/><circle cx="226" cy="82" r="6" transform="rotate(0,226,82)"/><circle cx="226" cy="106" r="6" transform="rotate(0,226,106)"/><circle cx="226" cy="118" r="6" transform="rotate(0,226,118)"/><circle cx="226" cy="130" r="6" transform="rotate(0,226,130)"/><circle cx="226" cy="142" r="6" transform="rotate(0,226,142)"/><circle cx="226" cy="166" r="6" transform="rotate(0,226,166)"/><circle cx="226" cy="178" r="6" transform="rotate(0,226,178)"/><circle cx="226" cy="202" r="6" transform="rotate(0,226,202)"/><circle cx="226" cy="238" r="6" transform="rotate(0,226,238)"/><circle cx="226" cy="250" r="6" transform="rotate(0,226,250)"/><circle cx="226" cy="298" r="6" transform="rotate(0,226,298)"/><circle cx="226" cy="322" r="6" transform="rotate(0,226,322)"/><circle cx="226" cy="382" r="6" transform="rotate(0,226,382)"/><circle cx="226" cy="394" r="6" transform="rotate(0,226,394)"/><circle cx="226" cy="406" r="6" transform="rotate(0,226,406)"/><circle cx="226" cy="430" r="6" transform="rotate(0,226,430)"/><circle cx="226" cy="442" r="6" transform="rotate(0,226,442)"/><circle cx="226" cy="466" r="6" transform="rotate(0,226,466)"/><circle cx="238" cy="34" r="6" transform="rotate(0,238,34)"/><circle cx="238" cy="46" r="6" transform="rotate(0,238,46)"/><circle cx="238" cy="58" r="6" transform="rotate(0,238,58)"/><circle cx="238" cy="70" r="6" transform="rotate(0,238,70)"/><circle cx="238" cy="94" r="6" transform="rotate(0,238,94)"/><circle cx="238" cy="118" r="6" transform="rotate(0,238,118)"/><circle cx="238" cy="166" r="6" transform="rotate(0,238,166)"/><circle cx="238" cy="202" r="6" transform="rotate(0,238,202)"/><circle cx="238" cy="250" r="6" transform="rotate(0,238,250)"/><circle cx="238" cy="286" r="6" transform="rotate(0,238,286)"/><circle cx="238" cy="334" r="6" transform="rotate(0,238,334)"/><circle cx="238" cy="358" r="6" transform="rotate(0,238,358)"/><circle cx="238" cy="370" r="6" transform="rotate(0,238,370)"/><circle cx="238" cy="406" r="6" transform="rotate(0,238,406)"/><circle cx="238" cy="418" r="6" transform="rotate(0,238,418)"/><circle cx="250" cy="106" r="6" transform="rotate(0,250,106)"/><circle cx="250" cy="178" r="6" transform="rotate(0,250,178)"/><circle cx="250" cy="214" r="6" transform="rotate(0,250,214)"/><circle cx="250" cy="250" r="6" transform="rotate(0,250,250)"/><circle cx="250" cy="262" r="6" transform="rotate(0,250,262)"/><circle cx="250" cy="274" r="6" transform="rotate(0,250,274)"/><circle cx="250" cy="346" r="6" transform="rotate(0,250,346)"/><circle cx="250" cy="358" r="6" transform="rotate(0,250,358)"/><circle cx="250" cy="394" r="6" transform="rotate(0,250,394)"/><circle cx="250" cy="406" r="6" transform="rotate(0,250,406)"/><circle cx="250" cy="430" r="6" transform="rotate(0,250,430)"/><circle cx="250" cy="442" r="6" transform="rotate(0,250,442)"/><circle cx="262" cy="34" r="6" transform="rotate(0,262,34)"/><circle cx="262" cy="58" r="6" transform="rotate(0,262,58)"/><circle cx="262" cy="70" r="6" transform="rotate(0,262,70)"/><circle cx="262" cy="82" r="6" transform="rotate(0,262,82)"/><circle cx="262" cy="94" r="6" transform="rotate(0,262,94)"/><circle cx="262" cy="130" r="6" transform="rotate(0,262,130)"/><circle cx="262" cy="142" r="6" transform="rotate(0,262,142)"/><circle cx="262" cy="154" r="6" transform="rotate(0,262,154)"/><circle cx="262" cy="214" r="6" transform="rotate(0,262,214)"/><circle cx="262" cy="226" r="6" transform="rotate(0,262,226)"/><circle cx="262" cy="262" r="6" transform="rotate(0,262,262)"/><circle cx="262" cy="274" r="6" transform="rotate(0,262,274)"/><circle cx="262" cy="286" r="6" transform="rotate(0,262,286)"/><circle cx="262" cy="298" r="6" transform="rotate(0,262,298)"/><circle cx="262" cy="322" r="6" transform="rotate(0,262,322)"/><circle cx="262" cy="346" r="6" transform="rotate(0,262,346)"/><circle cx="262" cy="382" r="6" transform="rotate(0,262,382)"/><circle cx="262" cy="406" r="6" transform="rotate(0,262,406)"/><circle cx="262" cy="442" r="6" transform="rotate(0,262,442)"/><circle cx="262" cy="466" r="6" transform="rotate(0,262,466)"/><circle cx="274" cy="46" r="6" transform="rotate(0,274,46)"/><circle cx="274" cy="70" r="6" transform="rotate(0,274,70)"/><circle cx="274" cy="106" r="6" transform="rotate(0,274,106)"/><circle cx="274" cy="118" r="6" transform="rotate(0,274,118)"/><circle cx="274" cy="130" r="6" transform="rotate(0,274,130)"/><circle cx="274" cy="178" r="6" transform="rotate(0,274,178)"/><circle cx="274" cy="190" r="6" transform="rotate(0,274,190)"/><circle cx="274" cy="202" r="6" transform="rotate(0,274,202)"/><circle cx="274" cy="226" r="6" transform="rotate(0,274,226)"/><circle cx="274" cy="238" r="6" transform="rotate(0,274,238)"/><circle cx="274" cy="262" r="6" transform="rotate(0,274,262)"/><circle cx="274" cy="286" r="6" transform="rotate(0,274,286)"/><circle cx="274" cy="298" r="6" transform="rotate(0,274,298)"/><circle cx="274" cy="310" r="6" transform="rotate(0,274,310)"/><circle cx="274" cy="322" r="6" transform="rotate(0,274,322)"/><circle cx="274" cy="346" r="6" transform="rotate(0,274,346)"/><circle cx="274" cy="358" r="6" transform="rotate(0,274,358)"/><circle cx="274" cy="382" r="6" transform="rotate(0,274,382)"/><circle cx="274" cy="394" r="6" transform="rotate(0,274,394)"/><circle cx="274" cy="442" r="6" transform="rotate(0,274,442)"/><circle cx="274" cy="466" r="6" transform="rotate(0,274,466)"/><circle cx="286" cy="46" r="6" transform="rotate(0,286,46)"/><circle cx="286" cy="58" r="6" transform="rotate(0,286,58)"/><circle cx="286" cy="82" r="6" transform="rotate(0,286,82)"/><circle cx="286" cy="130" r="6" transform="rotate(0,286,130)"/><circle cx="286" cy="178" r="6" transform="rotate(0,286,178)"/><circle cx="286" cy="190" r="6" transform="rotate(0,286,190)"/><circle cx="286" cy="202" r="6" transform="rotate(0,286,202)"/><circle cx="286" cy="238" r="6" transform="rotate(0,286,238)"/><circle cx="286" cy="262" r="6" transform="rotate(0,286,262)"/><circle cx="286" cy="274" r="6" transform="rotate(0,286,274)"/><circle cx="286" cy="310" r="6" transform="rotate(0,286,310)"/><circle cx="286" cy="346" r="6" transform="rotate(0,286,346)"/><circle cx="286" cy="358" r="6" transform="rotate(0,286,358)"/><circle cx="286" cy="418" r="6" transform="rotate(0,286,418)"/><circle cx="286" cy="430" r="6" transform="rotate(0,286,430)"/><circle cx="286" cy="442" r="6" transform="rotate(0,286,442)"/><circle cx="286" cy="454" r="6" transform="rotate(0,286,454)"/><circle cx="298" cy="46" r="6" transform="rotate(0,298,46)"/><circle cx="298" cy="82" r="6" transform="rotate(0,298,82)"/><circle cx="298" cy="94" r="6" transform="rotate(0,298,94)"/><circle cx="298" cy="106" r="6" transform="rotate(0,298,106)"/><circle cx="298" cy="118" r="6" transform="rotate(0,298,118)"/><circle cx="298" cy="142" r="6" transform="rotate(0,298,142)"/><circle cx="298" cy="178" r="6" transform="rotate(0,298,178)"/><circle cx="298" cy="190" r="6" transform="rotate(0,298,190)"/><circle cx="298" cy="214" r="6" transform="rotate(0,298,214)"/><circle cx="298" cy="250" r="6" transform="rotate(0,298,250)"/><circle cx="298" cy="262" r="6" transform="rotate(0,298,262)"/><circle cx="298" cy="274" r="6" transform="rotate(0,298,274)"/><circle cx="298" cy="286" r="6" transform="rotate(0,298,286)"/><circle cx="298" cy="298" r="6" transform="rotate(0,298,298)"/><circle cx="298" cy="310" r="6" transform="rotate(0,298,310)"/><circle cx="298" cy="322" r="6" transform="rotate(0,298,322)"/><circle cx="298" cy="334" r="6" transform="rotate(0,298,334)"/><circle cx="298" cy="346" r="6" transform="rotate(0,298,346)"/><circle cx="298" cy="358" r="6" transform="rotate(0,298,358)"/><circle cx="298" cy="370" r="6" transform="rotate(0,298,370)"/><circle cx="298" cy="382" r="6" transform="rotate(0,298,382)"/><circle cx="298" cy="394" r="6" transform="rotate(0,298,394)"/><circle cx="298" cy="442" r="6" transform="rotate(0,298,442)"/><circle cx="298" cy="454" r="6" transform="rotate(0,298,454)"/><circle cx="310" cy="46" r="6" transform="rotate(0,310,46)"/><circle cx="310" cy="94" r="6" transform="rotate(0,310,94)"/><circle cx="310" cy="130" r="6" transform="rotate(0,310,130)"/><circle cx="310" cy="142" r="6" transform="rotate(0,310,142)"/><circle cx="310" cy="154" r="6" transform="rotate(0,310,154)"/><circle cx="310" cy="178" r="6" transform="rotate(0,310,178)"/><circle cx="310" cy="190" r="6" transform="rotate(0,310,190)"/><circle cx="310" cy="238" r="6" transform="rotate(0,310,238)"/><circle cx="310" cy="250" r="6" transform="rotate(0,310,250)"/><circle cx="310" cy="274" r="6" transform="rotate(0,310,274)"/><circle cx="310" cy="286" r="6" transform="rotate(0,310,286)"/><circle cx="310" cy="298" r="6" transform="rotate(0,310,298)"/><circle cx="310" cy="310" r="6" transform="rotate(0,310,310)"/><circle cx="310" cy="334" r="6" transform="rotate(0,310,334)"/><circle cx="310" cy="370" r="6" transform="rotate(0,310,370)"/><circle cx="310" cy="406" r="6" transform="rotate(0,310,406)"/><circle cx="310" cy="442" r="6" transform="rotate(0,310,442)"/><circle cx="322" cy="46" r="6" transform="rotate(0,322,46)"/><circle cx="322" cy="58" r="6" transform="rotate(0,322,58)"/><circle cx="322" cy="70" r="6" transform="rotate(0,322,70)"/><circle cx="322" cy="82" r="6" transform="rotate(0,322,82)"/><circle cx="322" cy="106" r="6" transform="rotate(0,322,106)"/><circle cx="322" cy="142" r="6" transform="rotate(0,322,142)"/><circle cx="322" cy="154" r="6" transform="rotate(0,322,154)"/><circle cx="322" cy="190" r="6" transform="rotate(0,322,190)"/><circle cx="322" cy="214" r="6" transform="rotate(0,322,214)"/><circle cx="322" cy="250" r="6" transform="rotate(0,322,250)"/><circle cx="322" cy="286" r="6" transform="rotate(0,322,286)"/><circle cx="322" cy="298" r="6" transform="rotate(0,322,298)"/><circle cx="322" cy="310" r="6" transform="rotate(0,322,310)"/><circle cx="322" cy="322" r="6" transform="rotate(0,322,322)"/><circle cx="322" cy="334" r="6" transform="rotate(0,322,334)"/><circle cx="322" cy="358" r="6" transform="rotate(0,322,358)"/><circle cx="322" cy="394" r="6" transform="rotate(0,322,394)"/><circle cx="322" cy="430" r="6" transform="rotate(0,322,430)"/><circle cx="322" cy="442" r="6" transform="rotate(0,322,442)"/><circle cx="334" cy="34" r="6" transform="rotate(0,334,34)"/><circle cx="334" cy="46" r="6" transform="rotate(0,334,46)"/><circle cx="334" cy="70" r="6" transform="rotate(0,334,70)"/><circle cx="334" cy="82" r="6" transform="rotate(0,334,82)"/><circle cx="334" cy="94" r="6" transform="rotate(0,334,94)"/><circle cx="334" cy="142" r="6" transform="rotate(0,334,142)"/><circle cx="334" cy="166" r="6" transform="rotate(0,334,166)"/><circle cx="334" cy="178" r="6" transform="rotate(0,334,178)"/><circle cx="334" cy="190" r="6" transform="rotate(0,334,190)"/><circle cx="334" cy="202" r="6" transform="rotate(0,334,202)"/><circle cx="334" cy="214" r="6" transform="rotate(0,334,214)"/><circle cx="334" cy="226" r="6" transform="rotate(0,334,226)"/><circle cx="334" cy="238" r="6" transform="rotate(0,334,238)"/><circle cx="334" cy="262" r="6" transform="rotate(0,334,262)"/><circle cx="334" cy="298" r="6" transform="rotate(0,334,298)"/><circle cx="334" cy="310" r="6" transform="rotate(0,334,310)"/><circle cx="334" cy="322" r="6" transform="rotate(0,334,322)"/><circle cx="334" cy="334" r="6" transform="rotate(0,334,334)"/><circle cx="334" cy="346" r="6" transform="rotate(0,334,346)"/><circle cx="334" cy="382" r="6" transform="rotate(0,334,382)"/><circle cx="334" cy="406" r="6" transform="rotate(0,334,406)"/><circle cx="334" cy="418" r="6" transform="rotate(0,334,418)"/><circle cx="346" cy="94" r="6" transform="rotate(0,346,94)"/><circle cx="346" cy="106" r="6" transform="rotate(0,346,106)"/><circle cx="346" cy="130" r="6" transform="rotate(0,346,130)"/><circle cx="346" cy="154" r="6" transform="rotate(0,346,154)"/><circle cx="346" cy="166" r="6" transform="rotate(0,346,166)"/><circle cx="346" cy="202" r="6" transform="rotate(0,346,202)"/><circle cx="346" cy="214" r="6" transform="rotate(0,346,214)"/><circle cx="346" cy="226" r="6" transform="rotate(0,346,226)"/><circle cx="346" cy="250" r="6" transform="rotate(0,346,250)"/><circle cx="346" cy="262" r="6" transform="rotate(0,346,262)"/><circle cx="346" cy="274" r="6" transform="rotate(0,346,274)"/><circle cx="346" cy="310" r="6" transform="rotate(0,346,310)"/><circle cx="346" cy="322" r="6" transform="rotate(0,346,322)"/><circle cx="346" cy="358" r="6" transform="rotate(0,346,358)"/><circle cx="346" cy="382" r="6" transform="rotate(0,346,382)"/><circle cx="346" cy="430" r="6" transform="rotate(0,346,430)"/><circle cx="346" cy="454" r="6" transform="rotate(0,346,454)"/><circle cx="358" cy="94" r="6" transform="rotate(0,358,94)"/><circle cx="358" cy="130" r="6" transform="rotate(0,358,130)"/><circle cx="358" cy="166" r="6" transform="rotate(0,358,166)"/><circle cx="358" cy="178" r="6" transform="rotate(0,358,178)"/><circle cx="358" cy="214" r="6" transform="rotate(0,358,214)"/><circle cx="358" cy="238" r="6" transform="rotate(0,358,238)"/><circle cx="358" cy="250" r="6" transform="rotate(0,358,250)"/><circle cx="358" cy="286" r="6" transform="rotate(0,358,286)"/><circle cx="358" cy="346" r="6" transform="rotate(0,358,346)"/><circle cx="358" cy="358" r="6" transform="rotate(0,358,358)"/><circle cx="358" cy="370" r="6" transform="rotate(0,358,370)"/><circle cx="358" cy="394" r="6" transform="rotate(0,358,394)"/><circle cx="358" cy="406" r="6" transform="rotate(0,358,406)"/><circle cx="358" cy="430" r="6" transform="rotate(0,358,430)"/><circle cx="358" cy="442" r="6" transform="rotate(0,358,442)"/><circle cx="358" cy="454" r="6" transform="rotate(0,358,454)"/><circle cx="370" cy="34" r="6" transform="rotate(0,370,34)"/><circle cx="370" cy="46" r="6" transform="rotate(0,370,46)"/><circle cx="370" cy="82" r="6" transform="rotate(0,370,82)"/><circle cx="370" cy="94" r="6" transform="rotate(0,370,94)"/><circle cx="370" cy="106" r="6" transform="rotate(0,370,106)"/><circle cx="370" cy="130" r="6" transform="rotate(0,370,130)"/><circle cx="370" cy="142" r="6" transform="rotate(0,370,142)"/><circle cx="370" cy="166" r="6" transform="rotate(0,370,166)"/><circle cx="370" cy="226" r="6" transform="rotate(0,370,226)"/><circle cx="370" cy="238" r="6" transform="rotate(0,370,238)"/><circle cx="370" cy="250" r="6" transform="rotate(0,370,250)"/><circle cx="370" cy="262" r="6" transform="rotate(0,370,262)"/><circle cx="370" cy="274" r="6" transform="rotate(0,370,274)"/><circle cx="370" cy="286" r="6" transform="rotate(0,370,286)"/><circle cx="370" cy="310" r="6" transform="rotate(0,370,310)"/><circle cx="370" cy="358" r="6" transform="rotate(0,370,358)"/><circle cx="370" cy="370" r="6" transform="rotate(0,370,370)"/><circle cx="370" cy="382" r="6" transform="rotate(0,370,382)"/><circle cx="370" cy="394" r="6" transform="rotate(0,370,394)"/><circle cx="370" cy="406" r="6" transform="rotate(0,370,406)"/><circle cx="370" cy="418" r="6" transform="rotate(0,370,418)"/><circle cx="370" cy="430" r="6" transform="rotate(0,370,430)"/><circle cx="370" cy="442" r="6" transform="rotate(0,370,442)"/><circle cx="370" cy="466" r="6" transform="rotate(0,370,466)"/><circle cx="382" cy="130" r="6" transform="rotate(0,382,130)"/><circle cx="382" cy="142" r="6" transform="rotate(0,382,142)"/><circle cx="382" cy="154" r="6" transform="rotate(0,382,154)"/><circle cx="382" cy="190" r="6" transform="rotate(0,382,190)"/><circle cx="382" cy="202" r="6" transform="rotate(0,382,202)"/><circle cx="382" cy="214" r="6" transform="rotate(0,382,214)"/><circle cx="382" cy="226" r="6" transform="rotate(0,382,226)"/><circle cx="382" cy="238" r="6" transform="rotate(0,382,238)"/><circle cx="382" cy="250" r="6" transform="rotate(0,382,250)"/><circle cx="382" cy="274" r="6" transform="rotate(0,382,274)"/><circle cx="382" cy="298" r="6" transform="rotate(0,382,298)"/><circle cx="382" cy="310" r="6" transform="rotate(0,382,310)"/><circle cx="382" cy="334" r="6" transform="rotate(0,382,334)"/><circle cx="382" cy="370" r="6" transform="rotate(0,382,370)"/><circle cx="382" cy="418" r="6" transform="rotate(0,382,418)"/><circle cx="382" cy="430" r="6" transform="rotate(0,382,430)"/><circle cx="382" cy="454" r="6" transform="rotate(0,382,454)"/><circle cx="394" cy="154" r="6" transform="rotate(0,394,154)"/><circle cx="394" cy="166" r="6" transform="rotate(0,394,166)"/><circle cx="394" cy="178" r="6" transform="rotate(0,394,178)"/><circle cx="394" cy="202" r="6" transform="rotate(0,394,202)"/><circle cx="394" cy="214" r="6" transform="rotate(0,394,214)"/><circle cx="394" cy="238" r="6" transform="rotate(0,394,238)"/><circle cx="394" cy="262" r="6" transform="rotate(0,394,262)"/><circle cx="394" cy="286" r="6" transform="rotate(0,394,286)"/><circle cx="394" cy="298" r="6" transform="rotate(0,394,298)"/><circle cx="394" cy="310" r="6" transform="rotate(0,394,310)"/><circle cx="394" cy="370" r="6" transform="rotate(0,394,370)"/><circle cx="394" cy="394" r="6" transform="rotate(0,394,394)"/><circle cx="394" cy="418" r="6" transform="rotate(0,394,418)"/><circle cx="394" cy="430" r="6" transform="rotate(0,394,430)"/><circle cx="394" cy="442" r="6" transform="rotate(0,394,442)"/><circle cx="406" cy="142" r="6" transform="rotate(0,406,142)"/><circle cx="406" cy="154" r="6" transform="rotate(0,406,154)"/><circle cx="406" cy="178" r="6" transform="rotate(0,406,178)"/><circle cx="406" cy="226" r="6" transform="rotate(0,406,226)"/><circle cx="406" cy="238" r="6" transform="rotate(0,406,238)"/><circle cx="406" cy="250" r="6" transform="rotate(0,406,250)"/><circle cx="406" cy="262" r="6" transform="rotate(0,406,262)"/><circle cx="406" cy="286" r="6" transform="rotate(0,406,286)"/><circle cx="406" cy="310" r="6" transform="rotate(0,406,310)"/><circle cx="406" cy="370" r="6" transform="rotate(0,406,370)"/><circle cx="406" cy="418" r="6" transform="rotate(0,406,418)"/><circle cx="406" cy="442" r="6" transform="rotate(0,406,442)"/><circle cx="418" cy="130" r="6" transform="rotate(0,418,130)"/><circle cx="418" cy="142" r="6" transform="rotate(0,418,142)"/><circle cx="418" cy="154" r="6" transform="rotate(0,418,154)"/><circle cx="418" cy="166" r="6" transform="rotate(0,418,166)"/><circle cx="418" cy="190" r="6" transform="rotate(0,418,190)"/><circle cx="418" cy="202" r="6" transform="rotate(0,418,202)"/><circle cx="418" cy="238" r="6" transform="rotate(0,418,238)"/><circle cx="418" cy="250" r="6" transform="rotate(0,418,250)"/><circle cx="418" cy="274" r="6" transform="rotate(0,418,274)"/><circle cx="418" cy="370" r="6" transform="rotate(0,418,370)"/><circle cx="418" cy="382" r="6" transform="rotate(0,418,382)"/><circle cx="418" cy="394" r="6" transform="rotate(0,418,394)"/><circle cx="418" cy="406" r="6" transform="rotate(0,418,406)"/><circle cx="418" cy="418" r="6" transform="rotate(0,418,418)"/><circle cx="418" cy="430" r="6" transform="rotate(0,418,430)"/><circle cx="418" cy="442" r="6" transform="rotate(0,418,442)"/><circle cx="418" cy="466" r="6" transform="rotate(0,418,466)"/><circle cx="430" cy="142" r="6" transform="rotate(0,430,142)"/><circle cx="430" cy="154" r="6" transform="rotate(0,430,154)"/><circle cx="430" cy="166" r="6" transform="rotate(0,430,166)"/><circle cx="430" cy="190" r="6" transform="rotate(0,430,190)"/><circle cx="430" cy="202" r="6" transform="rotate(0,430,202)"/><circle cx="430" cy="238" r="6" transform="rotate(0,430,238)"/><circle cx="430" cy="250" r="6" transform="rotate(0,430,250)"/><circle cx="430" cy="262" r="6" transform="rotate(0,430,262)"/><circle cx="430" cy="298" r="6" transform="rotate(0,430,298)"/><circle cx="430" cy="322" r="6" transform="rotate(0,430,322)"/><circle cx="430" cy="346" r="6" transform="rotate(0,430,346)"/><circle cx="430" cy="358" r="6" transform="rotate(0,430,358)"/><circle cx="430" cy="394" r="6" transform="rotate(0,430,394)"/><circle cx="430" cy="430" r="6" transform="rotate(0,430,430)"/><circle cx="430" cy="442" r="6" transform="rotate(0,430,442)"/><circle cx="430" cy="454" r="6" transform="rotate(0,430,454)"/><circle cx="442" cy="142" r="6" transform="rotate(0,442,142)"/><circle cx="442" cy="154" r="6" transform="rotate(0,442,154)"/><circle cx="442" cy="166" r="6" transform="rotate(0,442,166)"/><circle cx="442" cy="190" r="6" transform="rotate(0,442,190)"/><circle cx="442" cy="262" r="6" transform="rotate(0,442,262)"/><circle cx="442" cy="286" r="6" transform="rotate(0,442,286)"/><circle cx="442" cy="310" r="6" transform="rotate(0,442,310)"/><circle cx="442" cy="322" r="6" transform="rotate(0,442,322)"/><circle cx="442" cy="334" r="6" transform="rotate(0,442,334)"/><circle cx="442" cy="346" r="6" transform="rotate(0,442,346)"/><circle cx="442" cy="358" r="6" transform="rotate(0,442,358)"/><circle cx="442" cy="394" r="6" transform="rotate(0,442,394)"/><circle cx="442" cy="406" r="6" transform="rotate(0,442,406)"/><circle cx="442" cy="430" r="6" transform="rotate(0,442,430)"/><circle cx="442" cy="442" r="6" transform="rotate(0,442,442)"/><circle cx="442" cy="454" r="6" transform="rotate(0,442,454)"/><circle cx="454" cy="130" r="6" transform="rotate(0,454,130)"/><circle cx="454" cy="142" r="6" transform="rotate(0,454,142)"/><circle cx="454" cy="154" r="6" transform="rotate(0,454,154)"/><circle cx="454" cy="166" r="6" transform="rotate(0,454,166)"/><circle cx="454" cy="190" r="6" transform="rotate(0,454,190)"/><circle cx="454" cy="226" r="6" transform="rotate(0,454,226)"/><circle cx="454" cy="250" r="6" transform="rotate(0,454,250)"/><circle cx="454" cy="262" r="6" transform="rotate(0,454,262)"/><circle cx="454" cy="274" r="6" transform="rotate(0,454,274)"/><circle cx="454" cy="286" r="6" transform="rotate(0,454,286)"/><circle cx="454" cy="298" r="6" transform="rotate(0,454,298)"/><circle cx="454" cy="310" r="6" transform="rotate(0,454,310)"/><circle cx="454" cy="346" r="6" transform="rotate(0,454,346)"/><circle cx="454" cy="358" r="6" transform="rotate(0,454,358)"/><circle cx="454" cy="382" r="6" transform="rotate(0,454,382)"/><circle cx="454" cy="406" r="6" transform="rotate(0,454,406)"/><circle cx="454" cy="442" r="6" transform="rotate(0,454,442)"/><circle cx="454" cy="454" r="6" transform="rotate(0,454,454)"/><circle cx="466" cy="142" r="6" transform="rotate(0,466,142)"/><circle cx="466" cy="166" r="6" transform="rotate(0,466,166)"/><circle cx="466" cy="178" r="6" transform="rotate(0,466,178)"/><circle cx="466" cy="202" r="6" transform="rotate(0,466,202)"/><circle cx="466" cy="214" r="6" transform="rotate(0,466,214)"/><circle cx="466" cy="238" r="6" transform="rotate(0,466,238)"/><circle cx="466" cy="250" r="6" transform="rotate(0,466,250)"/><circle cx="466" cy="286" r="6" transform="rotate(0,466,286)"/><circle cx="466" cy="322" r="6" transform="rotate(0,466,322)"/><circle cx="466" cy="358" r="6" transform="rotate(0,466,358)"/><circle cx="466" cy="382" r="6" transform="rotate(0,466,382)"/><circle cx="466" cy="418" r="6" transform="rotate(0,466,418)"/><circle cx="466" cy="442" r="6" transform="rotate(0,466,442)"/><circle cx="466" cy="454" r="6" transform="rotate(0,466,454)"/><circle cx="466" cy="466" r="6" transform="rotate(0,466,466)"/><path clip-rule="evenodd" d="M 70 28a 42 42 0 1 0 0.1 0zm 0 12a 30 30 0 1 1 -0.1 0Z" transform="rotate(0,70,70)"/><circle cx="70" cy="70" r="18" transform="rotate(0,70,70)"/><path clip-rule="evenodd" d="M 430 28a 42 42 0 1 0 0.1 0zm 0 12a 30 30 0 1 1 -0.1 0Z" transform="rotate(90,430,70)"/><circle cx="430" cy="70" r="18" transform="rotate(90,430,70)"/><path clip-rule="evenodd" d="M 70 388a 42 42 0 1 0 0.1 0zm 0 12a 30 30 0 1 1 -0.1 0Z" transform="rotate(-90,70,430)"/><circle cx="70" cy="430" r="18" transform="rotate(-90,70,430)"/></clipPath></defs><rect x="0" y="0" height="500" width="500" clip-path="url('#clip-path-background-color')" fill="#fff"/><rect x="0" y="0" height="500" width="500" clip-path="url('#clip-path-dot-color')" fill="#000000"/></svg>